ZephyrSansSprite.ufo
<glyph name="percent" format="2">
  <advance width="21"/>
    <unicode hex="0025"/>
  <outline>
    <contour>
      <point x="4" y="19" type="line"/>
      <point x="3" y="19" type="line"/>
      <point x="3" y="18" type="line"/>
      <point x="2" y="18" type="line"/>
      <point x="2" y="17" type="line"/>
      <point x="1" y="17" type="line"/>
      <point x="1" y="16" type="line"/>
      <point x="1" y="15" type="line"/>
      <point x="1" y="14" type="line"/>
      <point x="1" y="13" type="line"/>
      <point x="2" y="13" type="line"/>
      <point x="2" y="12" type="line"/>
      <point x="3" y="12" type="line"/>
      <point x="3" y="11" type="line"/>
      <point x="4" y="11" type="line"/>
      <point x="5" y="11" type="line"/>
      <point x="6" y="11" type="line"/>
      <point x="7" y="11" type="line"/>
      <point x="7" y="12" type="line"/>
      <point x="8" y="12" type="line"/>
      <point x="8" y="13" type="line"/>
      <point x="9" y="13" type="line"/>
      <point x="9" y="14" type="line"/>
      <point x="9" y="15" type="line"/>
      <point x="9" y="16" type="line"/>
      <point x="9" y="17" type="line"/>
      <point x="8" y="17" type="line"/>
      <point x="8" y="18" type="line"/>
      <point x="7" y="18" type="line"/>
      <point x="7" y="19" type="line"/>
      <point x="6" y="19" type="line"/>
      <point x="5" y="19" type="line"/>
    </contour>
    <contour>
      <point x="16" y="19" type="line"/>
      <point x="15" y="19" type="line"/>
      <point x="15" y="18" type="line"/>
      <point x="14" y="18" type="line"/>
      <point x="14" y="17" type="line"/>
      <point x="13" y="17" type="line"/>
      <point x="13" y="16" type="line"/>
      <point x="13" y="15" type="line"/>
      <point x="12" y="15" type="line"/>
      <point x="12" y="14" type="line"/>
      <point x="12" y="13" type="line"/>
      <point x="11" y="13" type="line"/>
      <point x="11" y="12" type="line"/>
      <point x="10" y="12" type="line"/>
      <point x="10" y="11" type="line"/>
      <point x="10" y="10" type="line"/>
      <point x="9" y="10" type="line"/>
      <point x="9" y="9" type="line"/>
      <point x="9" y="8" type="line"/>
      <point x="8" y="8" type="line"/>
      <point x="8" y="7" type="line"/>
      <point x="7" y="7" type="line"/>
      <point x="7" y="6" type="line"/>
      <point x="7" y="5" type="line"/>
      <point x="6" y="5" type="line"/>
      <point x="6" y="4" type="line"/>
      <point x="5" y="4" type="line"/>
      <point x="5" y="3" type="line"/>
      <point x="5" y="2" type="line"/>
      <point x="4" y="2" type="line"/>
      <point x="4" y="1" type="line"/>
      <point x="3" y="1" type="line"/>
      <point x="3" y="0" type="line"/>
      <point x="4" y="0" type="line"/>
      <point x="5" y="0" type="line"/>
      <point x="6" y="0" type="line"/>
      <point x="6" y="1" type="line"/>
      <point x="7" y="1" type="line"/>
      <point x="7" y="2" type="line"/>
      <point x="8" y="2" type="line"/>
      <point x="8" y="3" type="line"/>
      <point x="8" y="4" type="line"/>
      <point x="9" y="4" type="line"/>
      <point x="9" y="5" type="line"/>
      <point x="9" y="6" type="line"/>
      <point x="10" y="6" type="line"/>
      <point x="10" y="7" type="line"/>
      <point x="11" y="7" type="line"/>
      <point x="11" y="8" type="line"/>
      <point x="12" y="8" type="line"/>
      <point x="12" y="9" type="line"/>
      <point x="12" y="10" type="line"/>
      <point x="13" y="10" type="line"/>
      <point x="13" y="11" type="line"/>
      <point x="13" y="12" type="line"/>
      <point x="14" y="12" type="line"/>
      <point x="14" y="13" type="line"/>
      <point x="15" y="13" type="line"/>
      <point x="15" y="14" type="line"/>
      <point x="15" y="15" type="line"/>
      <point x="16" y="15" type="line"/>
      <point x="16" y="16" type="line"/>
      <point x="16" y="17" type="line"/>
      <point x="17" y="17" type="line"/>
      <point x="17" y="18" type="line"/>
      <point x="18" y="18" type="line"/>
      <point x="18" y="19" type="line"/>
      <point x="17" y="19" type="line"/>
    </contour>
    <contour>
      <point x="4" y="17" type="line"/>
      <point x="5" y="17" type="line"/>
      <point x="6" y="17" type="line"/>
      <point x="6" y="16" type="line"/>
      <point x="7" y="16" type="line"/>
      <point x="7" y="15" type="line"/>
      <point x="7" y="14" type="line"/>
      <point x="6" y="14" type="line"/>
      <point x="6" y="13" type="line"/>
      <point x="5" y="13" type="line"/>
      <point x="4" y="13" type="line"/>
      <point x="4" y="14" type="line"/>
      <point x="3" y="14" type="line"/>
      <point x="3" y="15" type="line"/>
      <point x="3" y="16" type="line"/>
      <point x="4" y="16" type="line"/>
    </contour>
    <contour>
      <point x="15" y="8" type="line"/>
      <point x="14" y="8" type="line"/>
      <point x="14" y="7" type="line"/>
      <point x="13" y="7" type="line"/>
      <point x="13" y="6" type="line"/>
      <point x="12" y="6" type="line"/>
      <point x="12" y="5" type="line"/>
      <point x="12" y="4" type="line"/>
      <point x="12" y="3" type="line"/>
      <point x="12" y="2" type="line"/>
      <point x="13" y="2" type="line"/>
      <point x="13" y="1" type="line"/>
      <point x="14" y="1" type="line"/>
      <point x="14" y="0" type="line"/>
      <point x="15" y="0" type="line"/>
      <point x="16" y="0" type="line"/>
      <point x="17" y="0" type="line"/>
      <point x="18" y="0" type="line"/>
      <point x="18" y="1" type="line"/>
      <point x="19" y="1" type="line"/>
      <point x="19" y="2" type="line"/>
      <point x="20" y="2" type="line"/>
      <point x="20" y="3" type="line"/>
      <point x="20" y="4" type="line"/>
      <point x="20" y="5" type="line"/>
      <point x="20" y="6" type="line"/>
      <point x="19" y="6" type="line"/>
      <point x="19" y="7" type="line"/>
      <point x="18" y="7" type="line"/>
      <point x="18" y="8" type="line"/>
      <point x="17" y="8" type="line"/>
      <point x="16" y="8" type="line"/>
    </contour>
    <contour>
      <point x="15" y="6" type="line"/>
      <point x="16" y="6" type="line"/>
      <point x="17" y="6" type="line"/>
      <point x="17" y="5" type="line"/>
      <point x="18" y="5" type="line"/>
      <point x="18" y="4" type="line"/>
      <point x="18" y="3" type="line"/>
      <point x="17" y="3" type="line"/>
      <point x="17" y="2" type="line"/>
      <point x="16" y="2" type="line"/>
      <point x="15" y="2" type="line"/>
      <point x="15" y="3" type="line"/>
      <point x="14" y="3" type="line"/>
      <point x="14" y="4" type="line"/>
      <point x="14" y="5" type="line"/>
      <point x="15" y="5" type="line"/>
    </contour>
  </outline>
</glyph>
<glyph name="quotesingle" format="2">
  <advance width="7"/>
    <unicode hex="0027"/>
  <outline>
    <contour>
      <point x="3" y="20" type="line"/>
      <point x="2" y="20" type="line"/>
      <point x="2" y="19" type="line"/>
      <point x="2" y="18" type="line"/>
      <point x="2" y="17" type="line"/>
      <point x="2" y="16" type="line"/>
      <point x="2" y="15" type="line"/>
      <point x="2" y="14" type="line"/>
      <point x="3" y="14" type="line"/>
      <point x="4" y="14" type="line"/>
      <point x="5" y="14" type="line"/>
      <point x="5" y="15" type="line"/>
      <point x="5" y="16" type="line"/>
      <point x="5" y="17" type="line"/>
      <point x="5" y="18" type="line"/>
      <point x="5" y="19" type="line"/>
      <point x="5" y="20" type="line"/>
      <point x="4" y="20" type="line"/>
    </contour>
  </outline>
</glyph>
<glyph name="parenright" format="2">
  <advance width="10"/>
    <unicode hex="0029"/>
  <outline>
    <contour>
      <point x="2" y="19" type="line"/>
      <point x="2" y="20" type="line"/>
      <point x="1" y="20" type="line"/>
      <point x="1" y="19" type="line"/>
      <point x="1" y="18" type="line"/>
      <point x="1" y="17" type="line"/>
      <point x="2" y="17" type="line"/>
      <point x="3" y="17" type="line"/>
      <point x="3" y="16" type="line"/>
      <point x="4" y="16" type="line"/>
      <point x="4" y="15" type="line"/>
      <point x="4" y="14" type="line"/>
      <point x="5" y="14" type="line"/>
      <point x="5" y="13" type="line"/>
      <point x="5" y="12" type="line"/>
      <point x="6" y="12" type="line"/>
      <point x="6" y="11" type="line"/>
      <point x="6" y="10" type="line"/>
      <point x="6" y="9" type="line"/>
      <point x="6" y="8" type="line"/>
      <point x="6" y="7" type="line"/>
      <point x="6" y="6" type="line"/>
      <point x="6" y="5" type="line"/>
      <point x="6" y="4" type="line"/>
      <point x="6" y="3" type="line"/>
      <point x="5" y="3" type="line"/>
      <point x="5" y="2" type="line"/>
      <point x="5" y="1" type="line"/>
      <point x="4" y="1" type="line"/>
      <point x="4" y="0" type="line"/>
      <point x="4" y="-1" type="line"/>
      <point x="3" y="-1" type="line"/>
      <point x="3" y="-2" type="line"/>
      <point x="2" y="-2" type="line"/>
      <point x="1" y="-2" type="line"/>
      <point x="1" y="-3" type="line"/>
      <point x="1" y="-4" type="line"/>
      <point x="1" y="-5" type="line"/>
      <point x="2" y="-5" type="line"/>
      <point x="2" y="-4" type="line"/>
      <point x="3" y="-4" type="line"/>
      <point x="4" y="-4" type="line"/>
      <point x="4" y="-3" type="line"/>
      <point x="5" y="-3" type="line"/>
      <point x="5" y="-2" type="line"/>
      <point x="6" y="-2" type="line"/>
      <point x="6" y="-1" type="line"/>
      <point x="7" y="-1" type="line"/>
      <point x="7" y="0" type="line"/>
      <point x="7" y="1" type="line"/>
      <point x="8" y="1" type="line"/>
      <point x="8" y="2" type="line"/>
      <point x="8" y="3" type="line"/>
      <point x="8" y="4" type="line"/>
      <point x="9" y="4" type="line"/>
      <point x="9" y="5" type="line"/>
      <point x="9" y="6" type="line"/>
      <point x="9" y="7" type="line"/>
      <point x="9" y="8" type="line"/>
      <point x="9" y="9" type="line"/>
      <point x="9" y="10" type="line"/>
      <point x="9" y="11" type="line"/>
      <point x="8" y="11" type="line"/>
      <point x="8" y="12" type="line"/>
      <point x="8" y="13" type="line"/>
      <point x="8" y="14" type="line"/>
      <point x="7" y="14" type="line"/>
      <point x="7" y="15" type="line"/>
      <point x="7" y="16" type="line"/>
      <point x="6" y="16" type="line"/>
      <point x="6" y="17" type="line"/>
      <point x="5" y="17" type="line"/>
      <point x="5" y="18" type="line"/>
      <point x="4" y="18" type="line"/>
      <point x="4" y="19" type="line"/>
      <point x="3" y="19" type="line"/>
    </contour>
  </outline>
</glyph>
<glyph name="asterisk" format="2">
  <advance width="18"/>
    <unicode hex="002A"/>
  <outline>
    <contour>
      <point x="9" y="14" type="line"/>
      <point x="8" y="14" type="line"/>
      <point x="8" y="13" type="line"/>
      <point x="8" y="12" type="line"/>
      <point x="8" y="11" type="line"/>
      <point x="8" y="10" type="line"/>
      <point x="8" y="9" type="line"/>
      <point x="7" y="9" type="line"/>
      <point x="7" y="10" type="line"/>
      <point x="6" y="10" type="line"/>
      <point x="6" y="11" type="line"/>
      <point x="5" y="11" type="line"/>
      <point x="4" y="11" type="line"/>
      <point x="4" y="12" type="line"/>
      <point x="3" y="12" type="line"/>
      <point x="3" y="11" type="line"/>
      <point x="2" y="11" type="line"/>
      <point x="2" y="10" type="line"/>
      <point x="3" y="10" type="line"/>
      <point x="3" y="9" type="line"/>
      <point x="4" y="9" type="line"/>
      <point x="5" y="9" type="line"/>
      <point x="5" y="8" type="line"/>
      <point x="6" y="8" type="line"/>
      <point x="7" y="8" type="line"/>
      <point x="7" y="7" type="line"/>
      <point x="6" y="7" type="line"/>
      <point x="6" y="6" type="line"/>
      <point x="5" y="6" type="line"/>
      <point x="5" y="5" type="line"/>
      <point x="4" y="5" type="line"/>
      <point x="3" y="5" type="line"/>
      <point x="3" y="4" type="line"/>
      <point x="2" y="4" type="line"/>
      <point x="2" y="3" type="line"/>
      <point x="3" y="3" type="line"/>
      <point x="3" y="2" type="line"/>
      <point x="4" y="2" type="line"/>
      <point x="4" y="3" type="line"/>
      <point x="5" y="3" type="line"/>
      <point x="6" y="3" type="line"/>
      <point x="6" y="4" type="line"/>
      <point x="7" y="4" type="line"/>
      <point x="7" y="5" type="line"/>
      <point x="8" y="5" type="line"/>
      <point x="8" y="4" type="line"/>
      <point x="8" y="3" type="line"/>
      <point x="8" y="2" type="line"/>
      <point x="8" y="1" type="line"/>
      <point x="8" y="0" type="line"/>
      <point x="9" y="0" type="line"/>
      <point x="10" y="0" type="line"/>
      <point x="10" y="1" type="line"/>
      <point x="10" y="2" type="line"/>
      <point x="10" y="3" type="line"/>
      <point x="10" y="4" type="line"/>
      <point x="10" y="5" type="line"/>
      <point x="11" y="5" type="line"/>
      <point x="11" y="4" type="line"/>
      <point x="12" y="4" type="line"/>
      <point x="12" y="3" type="line"/>
      <point x="13" y="3" type="line"/>
      <point x="14" y="3" type="line"/>
      <point x="14" y="2" type="line"/>
      <point x="15" y="2" type="line"/>
      <point x="15" y="3" type="line"/>
      <point x="16" y="3" type="line"/>
      <point x="16" y="4" type="line"/>
      <point x="15" y="4" type="line"/>
      <point x="15" y="5" type="line"/>
      <point x="14" y="5" type="line"/>
      <point x="13" y="5" type="line"/>
      <point x="13" y="6" type="line"/>
      <point x="12" y="6" type="line"/>
      <point x="12" y="7" type="line"/>
      <point x="11" y="7" type="line"/>
      <point x="11" y="8" type="line"/>
      <point x="12" y="8" type="line"/>
      <point x="13" y="8" type="line"/>
      <point x="13" y="9" type="line"/>
      <point x="14" y="9" type="line"/>
      <point x="15" y="9" type="line"/>
      <point x="15" y="10" type="line"/>
      <point x="16" y="10" type="line"/>
      <point x="16" y="11" type="line"/>
      <point x="15" y="11" type="line"/>
      <point x="15" y="12" type="line"/>
      <point x="14" y="12" type="line"/>
      <point x="14" y="11" type="line"/>
      <point x="13" y="11" type="line"/>
      <point x="12" y="11" type="line"/>
      <point x="12" y="10" type="line"/>
      <point x="11" y="10" type="line"/>
      <point x="11" y="9" type="line"/>
      <point x="10" y="9" type="line"/>
      <point x="10" y="10" type="line"/>
      <point x="10" y="11" type="line"/>
      <point x="10" y="12" type="line"/>
      <point x="10" y="13" type="line"/>
      <point x="10" y="14" type="line"/>
    </contour>
  </outline>
</glyph>
<glyph name="comma" format="2">
  <advance width="7"/>
    <unicode hex="002C"/>
  <outline>
    <contour>
      <point x="3" y="3" type="line"/>
      <point x="2" y="3" type="line"/>
      <point x="2" y="2" type="line"/>
      <point x="2" y="1" type="line"/>
      <point x="2" y="0" type="line"/>
      <point x="2" y="-1" type="line"/>
      <point x="2" y="-2" type="line"/>
      <point x="2" y="-3" type="line"/>
      <point x="3" y="-3" type="line"/>
      <point x="4" y="-3" type="line"/>
      <point x="4" y="-2" type="line"/>
      <point x="4" y="-1" type="line"/>
      <point x="4" y="0" type="line"/>
      <point x="5" y="0" type="line"/>
      <point x="5" y="1" type="line"/>
      <point x="5" y="2" type="line"/>
      <point x="5" y="3" type="line"/>
      <point x="4" y="3" type="line"/>
    </contour>
  </outline>
</glyph>
<glyph name="slash" format="2">
  <advance width="14"/>
    <unicode hex="002F"/>
  <outline>
    <contour>
      <point x="11" y="19" type="line"/>
      <point x="10" y="19" type="line"/>
      <point x="10" y="18" type="line"/>
      <point x="10" y="17" type="line"/>
      <point x="9" y="17" type="line"/>
      <point x="9" y="16" type="line"/>
      <point x="9" y="15" type="line"/>
      <point x="8" y="15" type="line"/>
      <point x="8" y="14" type="line"/>
      <point x="8" y="13" type="line"/>
      <point x="7" y="13" type="line"/>
      <point x="7" y="12" type="line"/>
      <point x="7" y="11" type="line"/>
      <point x="6" y="11" type="line"/>
      <point x="6" y="10" type="line"/>
      <point x="6" y="9" type="line"/>
      <point x="5" y="9" type="line"/>
      <point x="5" y="8" type="line"/>
      <point x="5" y="7" type="line"/>
      <point x="4" y="7" type="line"/>
      <point x="4" y="6" type="line"/>
      <point x="4" y="5" type="line"/>
      <point x="3" y="5" type="line"/>
      <point x="3" y="4" type="line"/>
      <point x="3" y="3" type="line"/>
      <point x="2" y="3" type="line"/>
      <point x="2" y="2" type="line"/>
      <point x="2" y="1" type="line"/>
      <point x="1" y="1" type="line"/>
      <point x="1" y="0" type="line"/>
      <point x="2" y="0" type="line"/>
      <point x="3" y="0" type="line"/>
      <point x="4" y="0" type="line"/>
      <point x="4" y="1" type="line"/>
      <point x="5" y="1" type="line"/>
      <point x="5" y="2" type="line"/>
      <point x="5" y="3" type="line"/>
      <point x="6" y="3" type="line"/>
      <point x="6" y="4" type="line"/>
      <point x="6" y="5" type="line"/>
      <point x="7" y="5" type="line"/>
      <point x="7" y="6" type="line"/>
      <point x="7" y="7" type="line"/>
      <point x="8" y="7" type="line"/>
      <point x="8" y="8" type="line"/>
      <point x="8" y="9" type="line"/>
      <point x="9" y="9" type="line"/>
      <point x="9" y="10" type="line"/>
      <point x="9" y="11" type="line"/>
      <point x="10" y="11" type="line"/>
      <point x="10" y="12" type="line"/>
      <point x="10" y="13" type="line"/>
      <point x="11" y="13" type="line"/>
      <point x="11" y="14" type="line"/>
      <point x="11" y="15" type="line"/>
      <point x="12" y="15" type="line"/>
      <point x="12" y="16" type="line"/>
      <point x="12" y="17" type="line"/>
      <point x="13" y="17" type="line"/>
      <point x="13" y="18" type="line"/>
      <point x="13" y="19" type="line"/>
      <point x="12" y="19" type="line"/>
    </contour>
  </outline>
</glyph>
<glyph name="one" format="2">
  <advance width="10"/>
    <unicode hex="0031"/>
  <outline>
    <contour>
      <point x="7" y="19" type="line"/>
      <point x="6" y="19" type="line"/>
      <point x="6" y="18" type="line"/>
      <point x="5" y="18" type="line"/>
      <point x="5" y="17" type="line"/>
      <point x="4" y="17" type="line"/>
      <point x="4" y="16" type="line"/>
      <point x="3" y="16" type="line"/>
      <point x="3" y="15" type="line"/>
      <point x="2" y="15" type="line"/>
      <point x="2" y="14" type="line"/>
      <point x="1" y="14" type="line"/>
      <point x="1" y="13" type="line"/>
      <point x="1" y="12" type="line"/>
      <point x="1" y="11" type="line"/>
      <point x="2" y="11" type="line"/>
      <point x="2" y="12" type="line"/>
      <point x="3" y="12" type="line"/>
      <point x="3" y="13" type="line"/>
      <point x="4" y="13" type="line"/>
      <point x="4" y="14" type="line"/>
      <point x="5" y="14" type="line"/>
      <point x="5" y="13" type="line"/>
      <point x="5" y="12" type="line"/>
      <point x="5" y="11" type="line"/>
      <point x="5" y="10" type="line"/>
      <point x="5" y="9" type="line"/>
      <point x="5" y="8" type="line"/>
      <point x="5" y="7" type="line"/>
      <point x="5" y="6" type="line"/>
      <point x="5" y="5" type="line"/>
      <point x="5" y="4" type="line"/>
      <point x="5" y="3" type="line"/>
      <point x="5" y="2" type="line"/>
      <point x="5" y="1" type="line"/>
      <point x="5" y="0" type="line"/>
      <point x="6" y="0" type="line"/>
      <point x="7" y="0" type="line"/>
      <point x="8" y="0" type="line"/>
      <point x="8" y="1" type="line"/>
      <point x="8" y="2" type="line"/>
      <point x="8" y="3" type="line"/>
      <point x="8" y="4" type="line"/>
      <point x="8" y="5" type="line"/>
      <point x="8" y="6" type="line"/>
      <point x="8" y="7" type="line"/>
      <point x="8" y="8" type="line"/>
      <point x="8" y="9" type="line"/>
      <point x="8" y="10" type="line"/>
      <point x="8" y="11" type="line"/>
      <point x="8" y="12" type="line"/>
      <point x="8" y="13" type="line"/>
      <point x="8" y="14" type="line"/>
      <point x="8" y="15" type="line"/>
      <point x="8" y="16" type="line"/>
      <point x="8" y="17" type="line"/>
      <point x="8" y="18" type="line"/>
      <point x="8" y="19" type="line"/>
    </contour>
  </outline>
</glyph>
<glyph name="four" format="2">
  <advance width="16"/>
    <unicode hex="0034"/>
  <outline>
    <contour>
      <point x="8" y="19" type="line"/>
      <point x="7" y="19" type="line"/>
      <point x="7" y="18" type="line"/>
      <point x="7" y="17" type="line"/>
      <point x="6" y="17" type="line"/>
      <point x="6" y="16" type="line"/>
      <point x="5" y="16" type="line"/>
      <point x="5" y="15" type="line"/>
      <point x="5" y="14" type="line"/>
      <point x="4" y="14" type="line"/>
      <point x="4" y="13" type="line"/>
      <point x="4" y="12" type="line"/>
      <point x="3" y="12" type="line"/>
      <point x="3" y="11" type="line"/>
      <point x="3" y="10" type="line"/>
      <point x="2" y="10" type="line"/>
      <point x="2" y="9" type="line"/>
      <point x="2" y="8" type="line"/>
      <point x="1" y="8" type="line"/>
      <point x="1" y="7" type="line"/>
      <point x="1" y="6" type="line"/>
      <point x="1" y="5" type="line"/>
      <point x="2" y="5" type="line"/>
      <point x="3" y="5" type="line"/>
      <point x="4" y="5" type="line"/>
      <point x="5" y="5" type="line"/>
      <point x="6" y="5" type="line"/>
      <point x="7" y="5" type="line"/>
      <point x="8" y="5" type="line"/>
      <point x="9" y="5" type="line"/>
      <point x="9" y="4" type="line"/>
      <point x="9" y="3" type="line"/>
      <point x="9" y="2" type="line"/>
      <point x="9" y="1" type="line"/>
      <point x="9" y="0" type="line"/>
      <point x="10" y="0" type="line"/>
      <point x="11" y="0" type="line"/>
      <point x="12" y="0" type="line"/>
      <point x="12" y="1" type="line"/>
      <point x="12" y="2" type="line"/>
      <point x="12" y="3" type="line"/>
      <point x="12" y="4" type="line"/>
      <point x="12" y="5" type="line"/>
      <point x="13" y="5" type="line"/>
      <point x="14" y="5" type="line"/>
      <point x="15" y="5" type="line"/>
      <point x="15" y="6" type="line"/>
      <point x="15" y="7" type="line"/>
      <point x="14" y="7" type="line"/>
      <point x="13" y="7" type="line"/>
      <point x="12" y="7" type="line"/>
      <point x="12" y="8" type="line"/>
      <point x="12" y="9" type="line"/>
      <point x="12" y="10" type="line"/>
      <point x="12" y="11" type="line"/>
      <point x="12" y="12" type="line"/>
      <point x="12" y="13" type="line"/>
      <point x="12" y="14" type="line"/>
      <point x="12" y="15" type="line"/>
      <point x="12" y="16" type="line"/>
      <point x="12" y="17" type="line"/>
      <point x="12" y="18" type="line"/>
      <point x="12" y="19" type="line"/>
      <point x="11" y="19" type="line"/>
      <point x="10" y="19" type="line"/>
      <point x="9" y="19" type="line"/>
    </contour>
    <contour>
      <point x="8" y="17" type="line"/>
      <point x="9" y="17" type="line"/>
      <point x="9" y="16" type="line"/>
      <point x="9" y="15" type="line"/>
      <point x="9" y="14" type="line"/>
      <point x="9" y="13" type="line"/>
      <point x="9" y="12" type="line"/>
      <point x="9" y="11" type="line"/>
      <point x="9" y="10" type="line"/>
      <point x="9" y="9" type="line"/>
      <point x="9" y="8" type="line"/>
      <point x="9" y="7" type="line"/>
      <point x="8" y="7" type="line"/>
      <point x="7" y="7" type="line"/>
      <point x="6" y="7" type="line"/>
      <point x="5" y="7" type="line"/>
      <point x="4" y="7" type="line"/>
      <point x="4" y="8" type="line"/>
      <point x="4" y="9" type="line"/>
      <point x="5" y="9" type="line"/>
      <point x="5" y="10" type="line"/>
      <point x="5" y="11" type="line"/>
      <point x="6" y="11" type="line"/>
      <point x="6" y="12" type="line"/>
      <point x="6" y="13" type="line"/>
      <point x="7" y="13" type="line"/>
      <point x="7" y="14" type="line"/>
      <point x="7" y="15" type="line"/>
      <point x="8" y="15" type="line"/>
      <point x="8" y="16" type="line"/>
    </contour>
  </outline>
</glyph>
<glyph name="colon" format="2">
  <advance width="7"/>
    <unicode hex="003A"/>
  <outline>
    <contour>
      <point x="3" y="14" type="line"/>
      <point x="2" y="14" type="line"/>
      <point x="2" y="13" type="line"/>
      <point x="2" y="12" type="line"/>
      <point x="2" y="11" type="line"/>
      <point x="3" y="11" type="line"/>
      <point x="4" y="11" type="line"/>
      <point x="5" y="11" type="line"/>
      <point x="5" y="12" type="line"/>
      <point x="5" y="13" type="line"/>
      <point x="5" y="14" type="line"/>
      <point x="4" y="14" type="line"/>
    </contour>
    <contour>
      <point x="3" y="3" type="line"/>
      <point x="2" y="3" type="line"/>
      <point x="2" y="2" type="line"/>
      <point x="2" y="1" type="line"/>
      <point x="2" y="0" type="line"/>
      <point x="3" y="0" type="line"/>
      <point x="4" y="0" type="line"/>
      <point x="5" y="0" type="line"/>
      <point x="5" y="1" type="line"/>
      <point x="5" y="2" type="line"/>
      <point x="5" y="3" type="line"/>
      <point x="4" y="3" type="line"/>
    </contour>
  </outline>
</glyph>
<glyph name="question" format="2">
  <advance width="13"/>
    <unicode hex="003F"/>
  <outline>
    <contour>
      <point x="4" y="19" type="line"/>
      <point x="3" y="19" type="line"/>
      <point x="3" y="18" type="line"/>
      <point x="2" y="18" type="line"/>
      <point x="2" y="17" type="line"/>
      <point x="1" y="17" type="line"/>
      <point x="1" y="16" type="line"/>
      <point x="1" y="15" type="line"/>
      <point x="1" y="14" type="line"/>
      <point x="2" y="14" type="line"/>
      <point x="3" y="14" type="line"/>
      <point x="4" y="14" type="line"/>
      <point x="4" y="15" type="line"/>
      <point x="4" y="16" type="line"/>
      <point x="5" y="16" type="line"/>
      <point x="5" y="17" type="line"/>
      <point x="6" y="17" type="line"/>
      <point x="7" y="17" type="line"/>
      <point x="8" y="17" type="line"/>
      <point x="8" y="16" type="line"/>
      <point x="9" y="16" type="line"/>
      <point x="9" y="15" type="line"/>
      <point x="9" y="14" type="line"/>
      <point x="9" y="13" type="line"/>
      <point x="9" y="12" type="line"/>
      <point x="9" y="11" type="line"/>
      <point x="8" y="11" type="line"/>
      <point x="8" y="10" type="line"/>
      <point x="7" y="10" type="line"/>
      <point x="6" y="10" type="line"/>
      <point x="6" y="9" type="line"/>
      <point x="5" y="9" type="line"/>
      <point x="5" y="8" type="line"/>
      <point x="5" y="7" type="line"/>
      <point x="5" y="6" type="line"/>
      <point x="6" y="6" type="line"/>
      <point x="6" y="5" type="line"/>
      <point x="7" y="5" type="line"/>
      <point x="7" y="6" type="line"/>
      <point x="8" y="6" type="line"/>
      <point x="8" y="7" type="line"/>
      <point x="8" y="8" type="line"/>
      <point x="8" y="9" type="line"/>
      <point x="9" y="9" type="line"/>
      <point x="10" y="9" type="line"/>
      <point x="10" y="10" type="line"/>
      <point x="11" y="10" type="line"/>
      <point x="11" y="11" type="line"/>
      <point x="11" y="12" type="line"/>
      <point x="12" y="12" type="line"/>
      <point x="12" y="13" type="line"/>
      <point x="12" y="14" type="line"/>
      <point x="12" y="15" type="line"/>
      <point x="12" y="16" type="line"/>
      <point x="12" y="17" type="line"/>
      <point x="11" y="17" type="line"/>
      <point x="11" y="18" type="line"/>
      <point x="10" y="18" type="line"/>
      <point x="10" y="19" type="line"/>
      <point x="9" y="19" type="line"/>
      <point x="8" y="19" type="line"/>
      <point x="7" y="19" type="line"/>
      <point x="6" y="19" type="line"/>
      <point x="5" y="19" type="line"/>
    </contour>
    <contour>
      <point x="7" y="2" type="line"/>
      <point x="7" y="3" type="line"/>
      <point x="6" y="3" type="line"/>
      <point x="6" y="2" type="line"/>
      <point x="5" y="2" type="line"/>
      <point x="5" y="1" type="line"/>
      <point x="5" y="0" type="line"/>
      <point x="6" y="0" type="line"/>
      <point x="6" y="-1" type="line"/>
      <point x="7" y="-1" type="line"/>
      <point x="7" y="0" type="line"/>
      <point x="8" y="0" type="line"/>
      <point x="8" y="1" type="line"/>
      <point x="8" y="2" type="line"/>
    </contour>
  </outline>
</glyph>
<glyph name="K" format="2">
  <advance width="16"/>
    <unicode hex="004B"/>
  <outline>
    <contour>
      <point x="2" y="19" type="line"/>
      <point x="1" y="19" type="line"/>
      <point x="1" y="18" type="line"/>
      <point x="1" y="17" type="line"/>
      <point x="1" y="16" type="line"/>
      <point x="1" y="15" type="line"/>
      <point x="1" y="14" type="line"/>
      <point x="1" y="13" type="line"/>
      <point x="1" y="12" type="line"/>
      <point x="1" y="11" type="line"/>
      <point x="1" y="10" type="line"/>
      <point x="1" y="9" type="line"/>
      <point x="1" y="8" type="line"/>
      <point x="1" y="7" type="line"/>
      <point x="1" y="6" type="line"/>
      <point x="1" y="5" type="line"/>
      <point x="1" y="4" type="line"/>
      <point x="1" y="3" type="line"/>
      <point x="1" y="2" type="line"/>
      <point x="1" y="1" type="line"/>
      <point x="1" y="0" type="line"/>
      <point x="2" y="0" type="line"/>
      <point x="3" y="0" type="line"/>
      <point x="4" y="0" type="line"/>
      <point x="4" y="1" type="line"/>
      <point x="4" y="2" type="line"/>
      <point x="4" y="3" type="line"/>
      <point x="4" y="4" type="line"/>
      <point x="4" y="5" type="line"/>
      <point x="4" y="6" type="line"/>
      <point x="5" y="6" type="line"/>
      <point x="5" y="7" type="line"/>
      <point x="6" y="7" type="line"/>
      <point x="6" y="8" type="line"/>
      <point x="7" y="8" type="line"/>
      <point x="7" y="9" type="line"/>
      <point x="8" y="9" type="line"/>
      <point x="8" y="8" type="line"/>
      <point x="9" y="8" type="line"/>
      <point x="9" y="7" type="line"/>
      <point x="9" y="6" type="line"/>
      <point x="10" y="6" type="line"/>
      <point x="10" y="5" type="line"/>
      <point x="10" y="4" type="line"/>
      <point x="11" y="4" type="line"/>
      <point x="11" y="3" type="line"/>
      <point x="11" y="2" type="line"/>
      <point x="12" y="2" type="line"/>
      <point x="12" y="1" type="line"/>
      <point x="12" y="0" type="line"/>
      <point x="13" y="0" type="line"/>
      <point x="14" y="0" type="line"/>
      <point x="15" y="0" type="line"/>
      <point x="15" y="1" type="line"/>
      <point x="15" y="2" type="line"/>
      <point x="14" y="2" type="line"/>
      <point x="14" y="3" type="line"/>
      <point x="14" y="4" type="line"/>
      <point x="13" y="4" type="line"/>
      <point x="13" y="5" type="line"/>
      <point x="13" y="6" type="line"/>
      <point x="12" y="6" type="line"/>
      <point x="12" y="7" type="line"/>
      <point x="11" y="7" type="line"/>
      <point x="11" y="8" type="line"/>
      <point x="11" y="9" type="line"/>
      <point x="10" y="9" type="line"/>
      <point x="10" y="10" type="line"/>
      <point x="9" y="10" type="line"/>
      <point x="9" y="11" type="line"/>
      <point x="10" y="11" type="line"/>
      <point x="10" y="12" type="line"/>
      <point x="11" y="12" type="line"/>
      <point x="11" y="13" type="line"/>
      <point x="11" y="14" type="line"/>
      <point x="12" y="14" type="line"/>
      <point x="12" y="15" type="line"/>
      <point x="13" y="15" type="line"/>
      <point x="13" y="16" type="line"/>
      <point x="13" y="17" type="line"/>
      <point x="14" y="17" type="line"/>
      <point x="14" y="18" type="line"/>
      <point x="14" y="19" type="line"/>
      <point x="13" y="19" type="line"/>
      <point x="12" y="19" type="line"/>
      <point x="12" y="18" type="line"/>
      <point x="11" y="18" type="line"/>
      <point x="11" y="17" type="line"/>
      <point x="11" y="16" type="line"/>
      <point x="10" y="16" type="line"/>
      <point x="10" y="15" type="line"/>
      <point x="9" y="15" type="line"/>
      <point x="9" y="14" type="line"/>
      <point x="9" y="13" type="line"/>
      <point x="8" y="13" type="line"/>
      <point x="8" y="12" type="line"/>
      <point x="7" y="12" type="line"/>
      <point x="7" y="11" type="line"/>
      <point x="6" y="11" type="line"/>
      <point x="6" y="10" type="line"/>
      <point x="5" y="10" type="line"/>
      <point x="5" y="9" type="line"/>
      <point x="4" y="9" type="line"/>
      <point x="4" y="10" type="line"/>
      <point x="4" y="11" type="line"/>
      <point x="4" y="12" type="line"/>
      <point x="4" y="13" type="line"/>
      <point x="4" y="14" type="line"/>
      <point x="4" y="15" type="line"/>
      <point x="4" y="16" type="line"/>
      <point x="4" y="17" type="line"/>
      <point x="4" y="18" type="line"/>
      <point x="4" y="19" type="line"/>
      <point x="3" y="19" type="line"/>
    </contour>
  </outline>
</glyph>
<glyph name="O" format="2">
  <advance width="20"/>
    <unicode hex="004F"/>
  <outline>
    <contour>
      <point x="8" y="19" type="line"/>
      <point x="7" y="19" type="line"/>
      <point x="7" y="18" type="line"/>
      <point x="6" y="18" type="line"/>
      <point x="5" y="18" type="line"/>
      <point x="5" y="17" type="line"/>
      <point x="4" y="17" type="line"/>
      <point x="4" y="16" type="line"/>
      <point x="3" y="16" type="line"/>
      <point x="3" y="15" type="line"/>
      <point x="3" y="14" type="line"/>
      <point x="2" y="14" type="line"/>
      <point x="2" y="13" type="line"/>
      <point x="2" y="12" type="line"/>
      <point x="2" y="11" type="line"/>
      <point x="2" y="10" type="line"/>
      <point x="2" y="9" type="line"/>
      <point x="2" y="8" type="line"/>
      <point x="2" y="7" type="line"/>
      <point x="2" y="6" type="line"/>
      <point x="2" y="5" type="line"/>
      <point x="3" y="5" type="line"/>
      <point x="3" y="4" type="line"/>
      <point x="3" y="3" type="line"/>
      <point x="4" y="3" type="line"/>
      <point x="4" y="2" type="line"/>
      <point x="5" y="2" type="line"/>
      <point x="5" y="1" type="line"/>
      <point x="6" y="1" type="line"/>
      <point x="7" y="1" type="line"/>
      <point x="7" y="0" type="line"/>
      <point x="8" y="0" type="line"/>
      <point x="9" y="0" type="line"/>
      <point x="10" y="0" type="line"/>
      <point x="11" y="0" type="line"/>
      <point x="12" y="0" type="line"/>
      <point x="13" y="0" type="line"/>
      <point x="13" y="1" type="line"/>
      <point x="14" y="1" type="line"/>
      <point x="15" y="1" type="line"/>
      <point x="15" y="2" type="line"/>
      <point x="16" y="2" type="line"/>
      <point x="16" y="3" type="line"/>
      <point x="17" y="3" type="line"/>
      <point x="17" y="4" type="line"/>
      <point x="17" y="5" type="line"/>
      <point x="18" y="5" type="line"/>
      <point x="18" y="6" type="line"/>
      <point x="18" y="7" type="line"/>
      <point x="18" y="8" type="line"/>
      <point x="18" y="9" type="line"/>
      <point x="18" y="10" type="line"/>
      <point x="18" y="11" type="line"/>
      <point x="18" y="12" type="line"/>
      <point x="18" y="13" type="line"/>
      <point x="18" y="14" type="line"/>
      <point x="17" y="14" type="line"/>
      <point x="17" y="15" type="line"/>
      <point x="17" y="16" type="line"/>
      <point x="16" y="16" type="line"/>
      <point x="16" y="17" type="line"/>
      <point x="15" y="17" type="line"/>
      <point x="15" y="18" type="line"/>
      <point x="14" y="18" type="line"/>
      <point x="13" y="18" type="line"/>
      <point x="13" y="19" type="line"/>
      <point x="12" y="19" type="line"/>
      <point x="11" y="19" type="line"/>
      <point x="10" y="19" type="line"/>
      <point x="9" y="19" type="line"/>
    </contour>
    <contour>
      <point x="8" y="17" type="line"/>
      <point x="9" y="17" type="line"/>
      <point x="10" y="17" type="line"/>
      <point x="11" y="17" type="line"/>
      <point x="12" y="17" type="line"/>
      <point x="12" y="16" type="line"/>
      <point x="13" y="16" type="line"/>
      <point x="14" y="16" type="line"/>
      <point x="14" y="15" type="line"/>
      <point x="14" y="14" type="line"/>
      <point x="15" y="14" type="line"/>
      <point x="15" y="13" type="line"/>
      <point x="15" y="12" type="line"/>
      <point x="15" y="11" type="line"/>
      <point x="15" y="10" type="line"/>
      <point x="15" y="9" type="line"/>
      <point x="15" y="8" type="line"/>
      <point x="15" y="7" type="line"/>
      <point x="15" y="6" type="line"/>
      <point x="15" y="5" type="line"/>
      <point x="14" y="5" type="line"/>
      <point x="14" y="4" type="line"/>
      <point x="14" y="3" type="line"/>
      <point x="13" y="3" type="line"/>
      <point x="12" y="3" type="line"/>
      <point x="12" y="2" type="line"/>
      <point x="11" y="2" type="line"/>
      <point x="10" y="2" type="line"/>
      <point x="9" y="2" type="line"/>
      <point x="8" y="2" type="line"/>
      <point x="8" y="3" type="line"/>
      <point x="7" y="3" type="line"/>
      <point x="6" y="3" type="line"/>
      <point x="6" y="4" type="line"/>
      <point x="6" y="5" type="line"/>
      <point x="5" y="5" type="line"/>
      <point x="5" y="6" type="line"/>
      <point x="5" y="7" type="line"/>
      <point x="5" y="8" type="line"/>
      <point x="5" y="9" type="line"/>
      <point x="5" y="10" type="line"/>
      <point x="5" y="11" type="line"/>
      <point x="5" y="12" type="line"/>
      <point x="5" y="13" type="line"/>
      <point x="5" y="14" type="line"/>
      <point x="6" y="14" type="line"/>
      <point x="6" y="15" type="line"/>
      <point x="6" y="16" type="line"/>
      <point x="7" y="16" type="line"/>
      <point x="8" y="16" type="line"/>
    </contour>
  </outline>
</glyph>
<glyph name="V" format="2">
  <advance width="19"/>
    <unicode hex="0056"/>
  <outline>
    <contour>
      <point x="2" y="19" type="line"/>
      <point x="1" y="19" type="line"/>
      <point x="1" y="18" type="line"/>
      <point x="1" y="17" type="line"/>
      <point x="2" y="17" type="line"/>
      <point x="2" y="16" type="line"/>
      <point x="2" y="15" type="line"/>
      <point x="2" y="14" type="line"/>
      <point x="3" y="14" type="line"/>
      <point x="3" y="13" type="line"/>
      <point x="3" y="12" type="line"/>
      <point x="3" y="11" type="line"/>
      <point x="4" y="11" type="line"/>
      <point x="4" y="10" type="line"/>
      <point x="4" y="9" type="line"/>
      <point x="4" y="8" type="line"/>
      <point x="5" y="8" type="line"/>
      <point x="5" y="7" type="line"/>
      <point x="5" y="6" type="line"/>
      <point x="6" y="6" type="line"/>
      <point x="6" y="5" type="line"/>
      <point x="6" y="4" type="line"/>
      <point x="7" y="4" type="line"/>
      <point x="7" y="3" type="line"/>
      <point x="7" y="2" type="line"/>
      <point x="8" y="2" type="line"/>
      <point x="8" y="1" type="line"/>
      <point x="8" y="0" type="line"/>
      <point x="9" y="0" type="line"/>
      <point x="10" y="0" type="line"/>
      <point x="11" y="0" type="line"/>
      <point x="11" y="1" type="line"/>
      <point x="11" y="2" type="line"/>
      <point x="12" y="2" type="line"/>
      <point x="12" y="3" type="line"/>
      <point x="12" y="4" type="line"/>
      <point x="13" y="4" type="line"/>
      <point x="13" y="5" type="line"/>
      <point x="13" y="6" type="line"/>
      <point x="14" y="6" type="line"/>
      <point x="14" y="7" type="line"/>
      <point x="14" y="8" type="line"/>
      <point x="15" y="8" type="line"/>
      <point x="15" y="9" type="line"/>
      <point x="15" y="10" type="line"/>
      <point x="15" y="11" type="line"/>
      <point x="16" y="11" type="line"/>
      <point x="16" y="12" type="line"/>
      <point x="16" y="13" type="line"/>
      <point x="16" y="14" type="line"/>
      <point x="17" y="14" type="line"/>
      <point x="17" y="15" type="line"/>
      <point x="17" y="16" type="line"/>
      <point x="17" y="17" type="line"/>
      <point x="18" y="17" type="line"/>
      <point x="18" y="18" type="line"/>
      <point x="18" y="19" type="line"/>
      <point x="17" y="19" type="line"/>
      <point x="16" y="19" type="line"/>
      <point x="15" y="19" type="line"/>
      <point x="15" y="18" type="line"/>
      <point x="15" y="17" type="line"/>
      <point x="14" y="17" type="line"/>
      <point x="14" y="16" type="line"/>
      <point x="14" y="15" type="line"/>
      <point x="14" y="14" type="line"/>
      <point x="13" y="14" type="line"/>
      <point x="13" y="13" type="line"/>
      <point x="13" y="12" type="line"/>
      <point x="13" y="11" type="line"/>
      <point x="12" y="11" type="line"/>
      <point x="12" y="10" type="line"/>
      <point x="12" y="9" type="line"/>
      <point x="12" y="8" type="line"/>
      <point x="11" y="8" type="line"/>
      <point x="11" y="7" type="line"/>
      <point x="11" y="6" type="line"/>
      <point x="11" y="5" type="line"/>
      <point x="10" y="5" type="line"/>
      <point x="10" y="4" type="line"/>
      <point x="10" y="3" type="line"/>
      <point x="9" y="3" type="line"/>
      <point x="9" y="4" type="line"/>
      <point x="9" y="5" type="line"/>
      <point x="8" y="5" type="line"/>
      <point x="8" y="6" type="line"/>
      <point x="8" y="7" type="line"/>
      <point x="8" y="8" type="line"/>
      <point x="7" y="8" type="line"/>
      <point x="7" y="9" type="line"/>
      <point x="7" y="10" type="line"/>
      <point x="7" y="11" type="line"/>
      <point x="6" y="11" type="line"/>
      <point x="6" y="12" type="line"/>
      <point x="6" y="13" type="line"/>
      <point x="6" y="14" type="line"/>
      <point x="5" y="14" type="line"/>
      <point x="5" y="15" type="line"/>
      <point x="5" y="16" type="line"/>
      <point x="5" y="17" type="line"/>
      <point x="4" y="17" type="line"/>
      <point x="4" y="18" type="line"/>
      <point x="4" y="19" type="line"/>
      <point x="3" y="19" type="line"/>
    </contour>
  </outline>
</glyph>
<glyph name="bracketleft" format="2">
  <advance width="12"/>
    <unicode hex="005B"/>
  <outline>
    <contour>
      <point x="3" y="20" type="line"/>
      <point x="2" y="20" type="line"/>
      <point x="2" y="19" type="line"/>
      <point x="2" y="18" type="line"/>
      <point x="2" y="17" type="line"/>
      <point x="2" y="16" type="line"/>
      <point x="2" y="15" type="line"/>
      <point x="2" y="14" type="line"/>
      <point x="2" y="13" type="line"/>
      <point x="2" y="12" type="line"/>
      <point x="2" y="11" type="line"/>
      <point x="2" y="10" type="line"/>
      <point x="2" y="9" type="line"/>
      <point x="2" y="8" type="line"/>
      <point x="2" y="7" type="line"/>
      <point x="2" y="6" type="line"/>
      <point x="2" y="5" type="line"/>
      <point x="2" y="4" type="line"/>
      <point x="2" y="3" type="line"/>
      <point x="2" y="2" type="line"/>
      <point x="2" y="1" type="line"/>
      <point x="2" y="0" type="line"/>
      <point x="2" y="-1" type="line"/>
      <point x="2" y="-2" type="line"/>
      <point x="2" y="-3" type="line"/>
      <point x="2" y="-4" type="line"/>
      <point x="2" y="-5" type="line"/>
      <point x="3" y="-5" type="line"/>
      <point x="4" y="-5" type="line"/>
      <point x="5" y="-5" type="line"/>
      <point x="6" y="-5" type="line"/>
      <point x="7" y="-5" type="line"/>
      <point x="8" y="-5" type="line"/>
      <point x="9" y="-5" type="line"/>
      <point x="10" y="-5" type="line"/>
      <point x="11" y="-5" type="line"/>
      <point x="11" y="-4" type="line"/>
      <point x="11" y="-3" type="line"/>
      <point x="10" y="-3" type="line"/>
      <point x="9" y="-3" type="line"/>
      <point x="8" y="-3" type="line"/>
      <point x="7" y="-3" type="line"/>
      <point x="6" y="-3" type="line"/>
      <point x="5" y="-3" type="line"/>
      <point x="5" y="-2" type="line"/>
      <point x="5" y="-1" type="line"/>
      <point x="5" y="0" type="line"/>
      <point x="5" y="1" type="line"/>
      <point x="5" y="2" type="line"/>
      <point x="5" y="3" type="line"/>
      <point x="5" y="4" type="line"/>
      <point x="5" y="5" type="line"/>
      <point x="5" y="6" type="line"/>
      <point x="5" y="7" type="line"/>
      <point x="5" y="8" type="line"/>
      <point x="5" y="9" type="line"/>
      <point x="5" y="10" type="line"/>
      <point x="5" y="11" type="line"/>
      <point x="5" y="12" type="line"/>
      <point x="5" y="13" type="line"/>
      <point x="5" y="14" type="line"/>
      <point x="5" y="15" type="line"/>
      <point x="5" y="16" type="line"/>
      <point x="5" y="17" type="line"/>
      <point x="5" y="18" type="line"/>
      <point x="6" y="18" type="line"/>
      <point x="7" y="18" type="line"/>
      <point x="8" y="18" type="line"/>
      <point x="9" y="18" type="line"/>
      <point x="10" y="18" type="line"/>
      <point x="11" y="18" type="line"/>
      <point x="11" y="19" type="line"/>
      <point x="11" y="20" type="line"/>
      <point x="10" y="20" type="line"/>
      <point x="9" y="20" type="line"/>
      <point x="8" y="20" type="line"/>
      <point x="7" y="20" type="line"/>
      <point x="6" y="20" type="line"/>
      <point x="5" y="20" type="line"/>
      <point x="4" y="20" type="line"/>
    </contour>
  </outline>
</glyph>
<glyph name="asciicircum" format="2">
  <advance width="15"/>
    <unicode hex="005E"/>
  <outline>
    <contour>
      <point x="7" y="20" type="line"/>
      <point x="6" y="20" type="line"/>
      <point x="6" y="19" type="line"/>
      <point x="6" y="18" type="line"/>
      <point x="5" y="18" type="line"/>
      <point x="5" y="17" type="line"/>
      <point x="5" y="16" type="line"/>
      <point x="4" y="16" type="line"/>
      <point x="4" y="15" type="line"/>
      <point x="4" y="14" type="line"/>
      <point x="3" y="14" type="line"/>
      <point x="3" y="13" type="line"/>
      <point x="3" y="12" type="line"/>
      <point x="2" y="12" type="line"/>
      <point x="2" y="11" type="line"/>
      <point x="2" y="10" type="line"/>
      <point x="3" y="10" type="line"/>
      <point x="4" y="10" type="line"/>
      <point x="4" y="11" type="line"/>
      <point x="5" y="11" type="line"/>
      <point x="5" y="12" type="line"/>
      <point x="5" y="13" type="line"/>
      <point x="6" y="13" type="line"/>
      <point x="6" y="14" type="line"/>
      <point x="6" y="15" type="line"/>
      <point x="7" y="15" type="line"/>
      <point x="7" y="16" type="line"/>
      <point x="7" y="17" type="line"/>
      <point x="8" y="17" type="line"/>
      <point x="8" y="16" type="line"/>
      <point x="8" y="15" type="line"/>
      <point x="9" y="15" type="line"/>
      <point x="9" y="14" type="line"/>
      <point x="9" y="13" type="line"/>
      <point x="10" y="13" type="line"/>
      <point x="10" y="12" type="line"/>
      <point x="10" y="11" type="line"/>
      <point x="11" y="11" type="line"/>
      <point x="11" y="10" type="line"/>
      <point x="12" y="10" type="line"/>
      <point x="13" y="10" type="line"/>
      <point x="13" y="11" type="line"/>
      <point x="13" y="12" type="line"/>
      <point x="12" y="12" type="line"/>
      <point x="12" y="13" type="line"/>
      <point x="12" y="14" type="line"/>
      <point x="11" y="14" type="line"/>
      <point x="11" y="15" type="line"/>
      <point x="11" y="16" type="line"/>
      <point x="10" y="16" type="line"/>
      <point x="10" y="17" type="line"/>
      <point x="10" y="18" type="line"/>
      <point x="9" y="18" type="line"/>
      <point x="9" y="19" type="line"/>
      <point x="9" y="20" type="line"/>
      <point x="8" y="20" type="line"/>
    </contour>
  </outline>
</glyph>
<glyph name="f" format="2">
  <advance width="12"/>
    <unicode hex="0066"/>
  <outline>
    <contour>
      <point x="7" y="20" type="line"/>
      <point x="6" y="20" type="line"/>
      <point x="6" y="19" type="line"/>
      <point x="5" y="19" type="line"/>
      <point x="5" y="18" type="line"/>
      <point x="4" y="18" type="line"/>
      <point x="4" y="17" type="line"/>
      <point x="4" y="16" type="line"/>
      <point x="4" y="15" type="line"/>
      <point x="4" y="14" type="line"/>
      <point x="3" y="14" type="line"/>
      <point x="2" y="14" type="line"/>
      <point x="1" y="14" type="line"/>
      <point x="1" y="13" type="line"/>
      <point x="1" y="12" type="line"/>
      <point x="2" y="12" type="line"/>
      <point x="3" y="12" type="line"/>
      <point x="4" y="12" type="line"/>
      <point x="4" y="11" type="line"/>
      <point x="4" y="10" type="line"/>
      <point x="4" y="9" type="line"/>
      <point x="4" y="8" type="line"/>
      <point x="4" y="7" type="line"/>
      <point x="4" y="6" type="line"/>
      <point x="4" y="5" type="line"/>
      <point x="4" y="4" type="line"/>
      <point x="4" y="3" type="line"/>
      <point x="4" y="2" type="line"/>
      <point x="4" y="1" type="line"/>
      <point x="4" y="0" type="line"/>
      <point x="5" y="0" type="line"/>
      <point x="6" y="0" type="line"/>
      <point x="7" y="0" type="line"/>
      <point x="7" y="1" type="line"/>
      <point x="7" y="2" type="line"/>
      <point x="7" y="3" type="line"/>
      <point x="7" y="4" type="line"/>
      <point x="7" y="5" type="line"/>
      <point x="7" y="6" type="line"/>
      <point x="7" y="7" type="line"/>
      <point x="7" y="8" type="line"/>
      <point x="7" y="9" type="line"/>
      <point x="7" y="10" type="line"/>
      <point x="7" y="11" type="line"/>
      <point x="7" y="12" type="line"/>
      <point x="8" y="12" type="line"/>
      <point x="9" y="12" type="line"/>
      <point x="10" y="12" type="line"/>
      <point x="11" y="12" type="line"/>
      <point x="11" y="13" type="line"/>
      <point x="11" y="14" type="line"/>
      <point x="10" y="14" type="line"/>
      <point x="9" y="14" type="line"/>
      <point x="8" y="14" type="line"/>
      <point x="7" y="14" type="line"/>
      <point x="7" y="15" type="line"/>
      <point x="7" y="16" type="line"/>
      <point x="7" y="17" type="line"/>
      <point x="7" y="18" type="line"/>
      <point x="8" y="18" type="line"/>
      <point x="9" y="18" type="line"/>
      <point x="10" y="18" type="line"/>
      <point x="10" y="17" type="line"/>
      <point x="11" y="17" type="line"/>
      <point x="12" y="17" type="line"/>
      <point x="12" y="18" type="line"/>
      <point x="12" y="19" type="line"/>
      <point x="11" y="19" type="line"/>
      <point x="10" y="19" type="line"/>
      <point x="10" y="20" type="line"/>
      <point x="9" y="20" type="line"/>
      <point x="8" y="20" type="line"/>
    </contour>
  </outline>
</glyph>
<glyph name="j" format="2">
  <advance width="8"/>
    <unicode hex="006A"/>
  <outline>
    <contour>
      <point x="4" y="20" type="line"/>
      <point x="3" y="20" type="line"/>
      <point x="3" y="19" type="line"/>
      <point x="3" y="18" type="line"/>
      <point x="3" y="17" type="line"/>
      <point x="4" y="17" type="line"/>
      <point x="5" y="17" type="line"/>
      <point x="6" y="17" type="line"/>
      <point x="6" y="18" type="line"/>
      <point x="6" y="19" type="line"/>
      <point x="6" y="20" type="line"/>
      <point x="5" y="20" type="line"/>
    </contour>
    <contour>
      <point x="4" y="14" type="line"/>
      <point x="3" y="14" type="line"/>
      <point x="3" y="13" type="line"/>
      <point x="3" y="12" type="line"/>
      <point x="3" y="11" type="line"/>
      <point x="3" y="10" type="line"/>
      <point x="3" y="9" type="line"/>
      <point x="3" y="8" type="line"/>
      <point x="3" y="7" type="line"/>
      <point x="3" y="6" type="line"/>
      <point x="3" y="5" type="line"/>
      <point x="3" y="4" type="line"/>
      <point x="3" y="3" type="line"/>
      <point x="3" y="2" type="line"/>
      <point x="3" y="1" type="line"/>
      <point x="3" y="0" type="line"/>
      <point x="3" y="-1" type="line"/>
      <point x="3" y="-2" type="line"/>
      <point x="3" y="-3" type="line"/>
      <point x="3" y="-4" type="line"/>
      <point x="2" y="-4" type="line"/>
      <point x="1" y="-4" type="line"/>
      <point x="0" y="-4" type="line"/>
      <point x="0" y="-5" type="line"/>
      <point x="0" y="-6" type="line"/>
      <point x="1" y="-6" type="line"/>
      <point x="2" y="-6" type="line"/>
      <point x="3" y="-6" type="line"/>
      <point x="4" y="-6" type="line"/>
      <point x="4" y="-5" type="line"/>
      <point x="5" y="-5" type="line"/>
      <point x="5" y="-4" type="line"/>
      <point x="6" y="-4" type="line"/>
      <point x="6" y="-3" type="line"/>
      <point x="6" y="-2" type="line"/>
      <point x="6" y="-1" type="line"/>
      <point x="6" y="0" type="line"/>
      <point x="6" y="1" type="line"/>
      <point x="6" y="2" type="line"/>
      <point x="6" y="3" type="line"/>
      <point x="6" y="4" type="line"/>
      <point x="6" y="5" type="line"/>
      <point x="6" y="6" type="line"/>
      <point x="6" y="7" type="line"/>
      <point x="6" y="8" type="line"/>
      <point x="6" y="9" type="line"/>
      <point x="6" y="10" type="line"/>
      <point x="6" y="11" type="line"/>
      <point x="6" y="12" type="line"/>
      <point x="6" y="13" type="line"/>
      <point x="6" y="14" type="line"/>
      <point x="5" y="14" type="line"/>
    </contour>
  </outline>
</glyph>
<glyph name="l" format="2">
  <advance width="8"/>
    <unicode hex="006C"/>
  <outline>
    <contour>
      <point x="3" y="20" type="line"/>
      <point x="2" y="20" type="line"/>
      <point x="2" y="19" type="line"/>
      <point x="2" y="18" type="line"/>
      <point x="2" y="17" type="line"/>
      <point x="2" y="16" type="line"/>
      <point x="2" y="15" type="line"/>
      <point x="2" y="14" type="line"/>
      <point x="2" y="13" type="line"/>
      <point x="2" y="12" type="line"/>
      <point x="2" y="11" type="line"/>
      <point x="2" y="10" type="line"/>
      <point x="2" y="9" type="line"/>
      <point x="2" y="8" type="line"/>
      <point x="2" y="7" type="line"/>
      <point x="2" y="6" type="line"/>
      <point x="2" y="5" type="line"/>
      <point x="2" y="4" type="line"/>
      <point x="2" y="3" type="line"/>
      <point x="2" y="2" type="line"/>
      <point x="3" y="2" type="line"/>
      <point x="3" y="1" type="line"/>
      <point x="4" y="1" type="line"/>
      <point x="4" y="0" type="line"/>
      <point x="5" y="0" type="line"/>
      <point x="6" y="0" type="line"/>
      <point x="7" y="0" type="line"/>
      <point x="8" y="0" type="line"/>
      <point x="8" y="1" type="line"/>
      <point x="8" y="2" type="line"/>
      <point x="7" y="2" type="line"/>
      <point x="6" y="2" type="line"/>
      <point x="5" y="2" type="line"/>
      <point x="5" y="3" type="line"/>
      <point x="5" y="4" type="line"/>
      <point x="5" y="5" type="line"/>
      <point x="5" y="6" type="line"/>
      <point x="5" y="7" type="line"/>
      <point x="5" y="8" type="line"/>
      <point x="5" y="9" type="line"/>
      <point x="5" y="10" type="line"/>
      <point x="5" y="11" type="line"/>
      <point x="5" y="12" type="line"/>
      <point x="5" y="13" type="line"/>
      <point x="5" y="14" type="line"/>
      <point x="5" y="15" type="line"/>
      <point x="5" y="16" type="line"/>
      <point x="5" y="17" type="line"/>
      <point x="5" y="18" type="line"/>
      <point x="5" y="19" type="line"/>
      <point x="5" y="20" type="line"/>
      <point x="4" y="20" type="line"/>
    </contour>
  </outline>
</glyph>
<glyph name="p" format="2">
  <advance width="16"/>
    <unicode hex="0070"/>
  <outline>
    <contour>
      <point x="3" y="14" type="line"/>
      <point x="2" y="14" type="line"/>
      <point x="2" y="13" type="line"/>
      <point x="2" y="12" type="line"/>
      <point x="2" y="11" type="line"/>
      <point x="2" y="10" type="line"/>
      <point x="2" y="9" type="line"/>
      <point x="2" y="8" type="line"/>
      <point x="2" y="7" type="line"/>
      <point x="2" y="6" type="line"/>
      <point x="2" y="5" type="line"/>
      <point x="2" y="4" type="line"/>
      <point x="2" y="3" type="line"/>
      <point x="2" y="2" type="line"/>
      <point x="2" y="1" type="line"/>
      <point x="2" y="0" type="line"/>
      <point x="2" y="-1" type="line"/>
      <point x="2" y="-2" type="line"/>
      <point x="2" y="-3" type="line"/>
      <point x="2" y="-4" type="line"/>
      <point x="2" y="-5" type="line"/>
      <point x="2" y="-6" type="line"/>
      <point x="3" y="-6" type="line"/>
      <point x="4" y="-6" type="line"/>
      <point x="5" y="-6" type="line"/>
      <point x="5" y="-5" type="line"/>
      <point x="5" y="-4" type="line"/>
      <point x="5" y="-3" type="line"/>
      <point x="5" y="-2" type="line"/>
      <point x="5" y="-1" type="line"/>
      <point x="5" y="0" type="line"/>
      <point x="5" y="1" type="line"/>
      <point x="5" y="2" type="line"/>
      <point x="6" y="2" type="line"/>
      <point x="6" y="1" type="line"/>
      <point x="7" y="1" type="line"/>
      <point x="7" y="0" type="line"/>
      <point x="8" y="0" type="line"/>
      <point x="9" y="0" type="line"/>
      <point x="10" y="0" type="line"/>
      <point x="11" y="0" type="line"/>
      <point x="12" y="0" type="line"/>
      <point x="12" y="1" type="line"/>
      <point x="13" y="1" type="line"/>
      <point x="14" y="1" type="line"/>
      <point x="14" y="2" type="line"/>
      <point x="14" y="3" type="line"/>
      <point x="14" y="4" type="line"/>
      <point x="15" y="4" type="line"/>
      <point x="15" y="5" type="line"/>
      <point x="15" y="6" type="line"/>
      <point x="15" y="7" type="line"/>
      <point x="15" y="8" type="line"/>
      <point x="15" y="9" type="line"/>
      <point x="15" y="10" type="line"/>
      <point x="14" y="10" type="line"/>
      <point x="14" y="11" type="line"/>
      <point x="14" y="12" type="line"/>
      <point x="14" y="13" type="line"/>
      <point x="13" y="13" type="line"/>
      <point x="12" y="13" type="line"/>
      <point x="12" y="14" type="line"/>
      <point x="11" y="14" type="line"/>
      <point x="10" y="14" type="line"/>
      <point x="9" y="14" type="line"/>
      <point x="8" y="14" type="line"/>
      <point x="7" y="14" type="line"/>
      <point x="7" y="13" type="line"/>
      <point x="6" y="13" type="line"/>
      <point x="6" y="12" type="line"/>
      <point x="5" y="12" type="line"/>
      <point x="5" y="13" type="line"/>
      <point x="5" y="14" type="line"/>
      <point x="4" y="14" type="line"/>
    </contour>
    <contour>
      <point x="7" y="12" type="line"/>
      <point x="8" y="12" type="line"/>
      <point x="9" y="12" type="line"/>
      <point x="10" y="12" type="line"/>
      <point x="11" y="12" type="line"/>
      <point x="11" y="11" type="line"/>
      <point x="11" y="10" type="line"/>
      <point x="12" y="10" type="line"/>
      <point x="12" y="9" type="line"/>
      <point x="12" y="8" type="line"/>
      <point x="12" y="7" type="line"/>
      <point x="12" y="6" type="line"/>
      <point x="12" y="5" type="line"/>
      <point x="12" y="4" type="line"/>
      <point x="11" y="4" type="line"/>
      <point x="11" y="3" type="line"/>
      <point x="11" y="2" type="line"/>
      <point x="10" y="2" type="line"/>
      <point x="9" y="2" type="line"/>
      <point x="8" y="2" type="line"/>
      <point x="7" y="2" type="line"/>
      <point x="7" y="3" type="line"/>
      <point x="6" y="3" type="line"/>
      <point x="6" y="4" type="line"/>
      <point x="6" y="5" type="line"/>
      <point x="5" y="5" type="line"/>
      <point x="5" y="6" type="line"/>
      <point x="5" y="7" type="line"/>
      <point x="5" y="8" type="line"/>
      <point x="5" y="9" type="line"/>
      <point x="6" y="9" type="line"/>
      <point x="6" y="10" type="line"/>
      <point x="6" y="11" type="line"/>
      <point x="7" y="11" type="line"/>
    </contour>
  </outline>
</glyph>
<glyph name="s" format="2">
  <advance width="13"/>
    <unicode hex="0073"/>
  <outline>
    <contour>
      <point x="5" y="14" type="line"/>
      <point x="4" y="14" type="line"/>
      <point x="4" y="13" type="line"/>
      <point x="3" y="13" type="line"/>
      <point x="2" y="13" type="line"/>
      <point x="2" y="12" type="line"/>
      <point x="2" y="11" type="line"/>
      <point x="1" y="11" type="line"/>
      <point x="1" y="10" type="line"/>
      <point x="1" y="9" type="line"/>
      <point x="2" y="9" type="line"/>
      <point x="2" y="8" type="line"/>
      <point x="2" y="7" type="line"/>
      <point x="3" y="7" type="line"/>
      <point x="4" y="7" type="line"/>
      <point x="5" y="7" type="line"/>
      <point x="5" y="6" type="line"/>
      <point x="6" y="6" type="line"/>
      <point x="7" y="6" type="line"/>
      <point x="8" y="6" type="line"/>
      <point x="8" y="5" type="line"/>
      <point x="9" y="5" type="line"/>
      <point x="9" y="4" type="line"/>
      <point x="9" y="3" type="line"/>
      <point x="8" y="3" type="line"/>
      <point x="8" y="2" type="line"/>
      <point x="7" y="2" type="line"/>
      <point x="6" y="2" type="line"/>
      <point x="5" y="2" type="line"/>
      <point x="5" y="3" type="line"/>
      <point x="4" y="3" type="line"/>
      <point x="3" y="3" type="line"/>
      <point x="3" y="4" type="line"/>
      <point x="2" y="4" type="line"/>
      <point x="2" y="3" type="line"/>
      <point x="1" y="3" type="line"/>
      <point x="1" y="2" type="line"/>
      <point x="2" y="2" type="line"/>
      <point x="2" y="1" type="line"/>
      <point x="3" y="1" type="line"/>
      <point x="4" y="1" type="line"/>
      <point x="4" y="0" type="line"/>
      <point x="5" y="0" type="line"/>
      <point x="6" y="0" type="line"/>
      <point x="7" y="0" type="line"/>
      <point x="8" y="0" type="line"/>
      <point x="9" y="0" type="line"/>
      <point x="9" y="1" type="line"/>
      <point x="10" y="1" type="line"/>
      <point x="11" y="1" type="line"/>
      <point x="11" y="2" type="line"/>
      <point x="11" y="3" type="line"/>
      <point x="12" y="3" type="line"/>
      <point x="12" y="4" type="line"/>
      <point x="12" y="5" type="line"/>
      <point x="11" y="5" type="line"/>
      <point x="11" y="6" type="line"/>
      <point x="10" y="6" type="line"/>
      <point x="10" y="7" type="line"/>
      <point x="9" y="7" type="line"/>
      <point x="8" y="7" type="line"/>
      <point x="8" y="8" type="line"/>
      <point x="7" y="8" type="line"/>
      <point x="6" y="8" type="line"/>
      <point x="5" y="8" type="line"/>
      <point x="5" y="9" type="line"/>
      <point x="4" y="9" type="line"/>
      <point x="4" y="10" type="line"/>
      <point x="4" y="11" type="line"/>
      <point x="5" y="11" type="line"/>
      <point x="5" y="12" type="line"/>
      <point x="6" y="12" type="line"/>
      <point x="7" y="12" type="line"/>
      <point x="8" y="12" type="line"/>
      <point x="8" y="11" type="line"/>
      <point x="9" y="11" type="line"/>
      <point x="10" y="11" type="line"/>
      <point x="10" y="10" type="line"/>
      <point x="11" y="10" type="line"/>
      <point x="11" y="11" type="line"/>
      <point x="12" y="11" type="line"/>
      <point x="12" y="12" type="line"/>
      <point x="11" y="12" type="line"/>
      <point x="11" y="13" type="line"/>
      <point x="10" y="13" type="line"/>
      <point x="9" y="13" type="line"/>
      <point x="9" y="14" type="line"/>
      <point x="8" y="14" type="line"/>
      <point x="7" y="14" type="line"/>
      <point x="6" y="14" type="line"/>
    </contour>
  </outline>
</glyph>
<glyph name="asciitilde" format="2">
  <advance width="14"/>
    <unicode hex="007E"/>
  <outline>
    <contour>
      <point x="4" y="9" type="line"/>
      <point x="3" y="9" type="line"/>
      <point x="3" y="8" type="line"/>
      <point x="2" y="8" type="line"/>
      <point x="1" y="8" type="line"/>
      <point x="1" y="7" type="line"/>
      <point x="1" y="6" type="line"/>
      <point x="2" y="6" type="line"/>
      <point x="2" y="5" type="line"/>
      <point x="3" y="5" type="line"/>
      <point x="3" y="6" type="line"/>
      <point x="3" y="7" type="line"/>
      <point x="4" y="7" type="line"/>
      <point x="5" y="7" type="line"/>
      <point x="6" y="7" type="line"/>
      <point x="6" y="6" type="line"/>
      <point x="7" y="6" type="line"/>
      <point x="8" y="6" type="line"/>
      <point x="8" y="5" type="line"/>
      <point x="9" y="5" type="line"/>
      <point x="10" y="5" type="line"/>
      <point x="11" y="5" type="line"/>
      <point x="12" y="5" type="line"/>
      <point x="12" y="6" type="line"/>
      <point x="13" y="6" type="line"/>
      <point x="13" y="7" type="line"/>
      <point x="13" y="8" type="line"/>
      <point x="12" y="8" type="line"/>
      <point x="12" y="9" type="line"/>
      <point x="11" y="9" type="line"/>
      <point x="11" y="8" type="line"/>
      <point x="11" y="7" type="line"/>
      <point x="10" y="7" type="line"/>
      <point x="9" y="7" type="line"/>
      <point x="8" y="7" type="line"/>
      <point x="8" y="8" type="line"/>
      <point x="7" y="8" type="line"/>
      <point x="6" y="8" type="line"/>
      <point x="6" y="9" type="line"/>
      <point x="5" y="9" type="line"/>
    </contour>
  </outline>
</glyph>
<glyph name="exclamdown" format="2">
  <advance width="7"/>
    <unicode hex="00A1"/>
  <outline>
    <contour>
      <point x="4" y="16" type="line"/>
      <point x="4" y="17" type="line"/>
      <point x="3" y="17" type="line"/>
      <point x="3" y="16" type="line"/>
      <point x="2" y="16" type="line"/>
      <point x="2" y="15" type="line"/>
      <point x="2" y="14" type="line"/>
      <point x="3" y="14" type="line"/>
      <point x="3" y="13" type="line"/>
      <point x="4" y="13" type="line"/>
      <point x="4" y="14" type="line"/>
      <point x="5" y="14" type="line"/>
      <point x="5" y="15" type="line"/>
      <point x="5" y="16" type="line"/>
    </contour>
    <contour>
      <point x="4" y="10" type="line"/>
      <point x="4" y="11" type="line"/>
      <point x="3" y="11" type="line"/>
      <point x="3" y="10" type="line"/>
      <point x="2" y="10" type="line"/>
      <point x="2" y="9" type="line"/>
      <point x="2" y="8" type="line"/>
      <point x="2" y="7" type="line"/>
      <point x="2" y="6" type="line"/>
      <point x="2" y="5" type="line"/>
      <point x="2" y="4" type="line"/>
      <point x="2" y="3" type="line"/>
      <point x="2" y="2" type="line"/>
      <point x="2" y="1" type="line"/>
      <point x="2" y="0" type="line"/>
      <point x="2" y="-1" type="line"/>
      <point x="2" y="-2" type="line"/>
      <point x="2" y="-3" type="line"/>
      <point x="2" y="-4" type="line"/>
      <point x="2" y="-5" type="line"/>
      <point x="3" y="-5" type="line"/>
      <point x="4" y="-5" type="line"/>
      <point x="5" y="-5" type="line"/>
      <point x="5" y="-4" type="line"/>
      <point x="5" y="-3" type="line"/>
      <point x="5" y="-2" type="line"/>
      <point x="5" y="-1" type="line"/>
      <point x="5" y="0" type="line"/>
      <point x="5" y="1" type="line"/>
      <point x="5" y="2" type="line"/>
      <point x="5" y="3" type="line"/>
      <point x="5" y="4" type="line"/>
      <point x="5" y="5" type="line"/>
      <point x="5" y="6" type="line"/>
      <point x="5" y="7" type="line"/>
      <point x="5" y="8" type="line"/>
      <point x="5" y="9" type="line"/>
      <point x="5" y="10" type="line"/>
    </contour>
  </outline>
</glyph>
<glyph name="yen" format="2">
  <advance width="17"/>
    <unicode hex="00A5"/>
  <outline>
    <contour>
      <point x="2" y="19" type="line"/>
      <point x="1" y="19" type="line"/>
      <point x="1" y="18" type="line"/>
      <point x="1" y="17" type="line"/>
      <point x="1" y="16" type="line"/>
      <point x="2" y="16" type="line"/>
      <point x="2" y="15" type="line"/>
      <point x="2" y="14" type="line"/>
      <point x="3" y="14" type="line"/>
      <point x="3" y="13" type="line"/>
      <point x="3" y="12" type="line"/>
      <point x="4" y="12" type="line"/>
      <point x="4" y="11" type="line"/>
      <point x="5" y="11" type="line"/>
      <point x="5" y="10" type="line"/>
      <point x="5" y="9" type="line"/>
      <point x="6" y="9" type="line"/>
      <point x="6" y="8" type="line"/>
      <point x="5" y="8" type="line"/>
      <point x="4" y="8" type="line"/>
      <point x="3" y="8" type="line"/>
      <point x="3" y="7" type="line"/>
      <point x="3" y="6" type="line"/>
      <point x="4" y="6" type="line"/>
      <point x="5" y="6" type="line"/>
      <point x="6" y="6" type="line"/>
      <point x="7" y="6" type="line"/>
      <point x="7" y="5" type="line"/>
      <point x="7" y="4" type="line"/>
      <point x="6" y="4" type="line"/>
      <point x="5" y="4" type="line"/>
      <point x="4" y="4" type="line"/>
      <point x="3" y="4" type="line"/>
      <point x="3" y="3" type="line"/>
      <point x="3" y="2" type="line"/>
      <point x="4" y="2" type="line"/>
      <point x="5" y="2" type="line"/>
      <point x="6" y="2" type="line"/>
      <point x="7" y="2" type="line"/>
      <point x="7" y="1" type="line"/>
      <point x="7" y="0" type="line"/>
      <point x="8" y="0" type="line"/>
      <point x="9" y="0" type="line"/>
      <point x="10" y="0" type="line"/>
      <point x="10" y="1" type="line"/>
      <point x="10" y="2" type="line"/>
      <point x="11" y="2" type="line"/>
      <point x="12" y="2" type="line"/>
      <point x="13" y="2" type="line"/>
      <point x="14" y="2" type="line"/>
      <point x="14" y="3" type="line"/>
      <point x="14" y="4" type="line"/>
      <point x="13" y="4" type="line"/>
      <point x="12" y="4" type="line"/>
      <point x="11" y="4" type="line"/>
      <point x="10" y="4" type="line"/>
      <point x="10" y="5" type="line"/>
      <point x="10" y="6" type="line"/>
      <point x="11" y="6" type="line"/>
      <point x="12" y="6" type="line"/>
      <point x="13" y="6" type="line"/>
      <point x="14" y="6" type="line"/>
      <point x="14" y="7" type="line"/>
      <point x="14" y="8" type="line"/>
      <point x="13" y="8" type="line"/>
      <point x="12" y="8" type="line"/>
      <point x="11" y="8" type="line"/>
      <point x="11" y="9" type="line"/>
      <point x="12" y="9" type="line"/>
      <point x="12" y="10" type="line"/>
      <point x="12" y="11" type="line"/>
      <point x="13" y="11" type="line"/>
      <point x="13" y="12" type="line"/>
      <point x="14" y="12" type="line"/>
      <point x="14" y="13" type="line"/>
      <point x="14" y="14" type="line"/>
      <point x="15" y="14" type="line"/>
      <point x="15" y="15" type="line"/>
      <point x="15" y="16" type="line"/>
      <point x="16" y="16" type="line"/>
      <point x="16" y="17" type="line"/>
      <point x="16" y="18" type="line"/>
      <point x="16" y="19" type="line"/>
      <point x="15" y="19" type="line"/>
      <point x="14" y="19" type="line"/>
      <point x="13" y="19" type="line"/>
      <point x="13" y="18" type="line"/>
      <point x="13" y="17" type="line"/>
      <point x="13" y="16" type="line"/>
      <point x="12" y="16" type="line"/>
      <point x="12" y="15" type="line"/>
      <point x="12" y="14" type="line"/>
      <point x="11" y="14" type="line"/>
      <point x="11" y="13" type="line"/>
      <point x="11" y="12" type="line"/>
      <point x="10" y="12" type="line"/>
      <point x="10" y="11" type="line"/>
      <point x="10" y="10" type="line"/>
      <point x="9" y="10" type="line"/>
      <point x="9" y="9" type="line"/>
      <point x="9" y="8" type="line"/>
      <point x="8" y="8" type="line"/>
      <point x="8" y="9" type="line"/>
      <point x="8" y="10" type="line"/>
      <point x="7" y="10" type="line"/>
      <point x="7" y="11" type="line"/>
      <point x="7" y="12" type="line"/>
      <point x="6" y="12" type="line"/>
      <point x="6" y="13" type="line"/>
      <point x="6" y="14" type="line"/>
      <point x="5" y="14" type="line"/>
      <point x="5" y="15" type="line"/>
      <point x="5" y="16" type="line"/>
      <point x="4" y="16" type="line"/>
      <point x="4" y="17" type="line"/>
      <point x="4" y="18" type="line"/>
      <point x="4" y="19" type="line"/>
      <point x="3" y="19" type="line"/>
    </contour>
  </outline>
</glyph>
<glyph name="section" format="2">
  <advance width="14"/>
    <unicode hex="00A7"/>
  <outline>
    <contour>
      <point x="5" y="19" type="line"/>
      <point x="4" y="19" type="line"/>
      <point x="4" y="18" type="line"/>
      <point x="3" y="18" type="line"/>
      <point x="2" y="18" type="line"/>
      <point x="2" y="17" type="line"/>
      <point x="2" y="16" type="line"/>
      <point x="1" y="16" type="line"/>
      <point x="1" y="15" type="line"/>
      <point x="1" y="14" type="line"/>
      <point x="1" y="13" type="line"/>
      <point x="2" y="13" type="line"/>
      <point x="2" y="12" type="line"/>
      <point x="3" y="12" type="line"/>
      <point x="3" y="11" type="line"/>
      <point x="4" y="11" type="line"/>
      <point x="4" y="10" type="line"/>
      <point x="3" y="10" type="line"/>
      <point x="2" y="10" type="line"/>
      <point x="2" y="9" type="line"/>
      <point x="2" y="8" type="line"/>
      <point x="1" y="8" type="line"/>
      <point x="1" y="7" type="line"/>
      <point x="1" y="6" type="line"/>
      <point x="1" y="5" type="line"/>
      <point x="2" y="5" type="line"/>
      <point x="2" y="4" type="line"/>
      <point x="3" y="4" type="line"/>
      <point x="3" y="3" type="line"/>
      <point x="4" y="3" type="line"/>
      <point x="5" y="3" type="line"/>
      <point x="5" y="2" type="line"/>
      <point x="6" y="2" type="line"/>
      <point x="7" y="2" type="line"/>
      <point x="8" y="2" type="line"/>
      <point x="8" y="1" type="line"/>
      <point x="9" y="1" type="line"/>
      <point x="9" y="0" type="line"/>
      <point x="9" y="-1" type="line"/>
      <point x="9" y="-2" type="line"/>
      <point x="8" y="-2" type="line"/>
      <point x="8" y="-3" type="line"/>
      <point x="7" y="-3" type="line"/>
      <point x="6" y="-3" type="line"/>
      <point x="5" y="-3" type="line"/>
      <point x="5" y="-2" type="line"/>
      <point x="4" y="-2" type="line"/>
      <point x="3" y="-2" type="line"/>
      <point x="3" y="-1" type="line"/>
      <point x="2" y="-1" type="line"/>
      <point x="2" y="-2" type="line"/>
      <point x="1" y="-2" type="line"/>
      <point x="1" y="-3" type="line"/>
      <point x="2" y="-3" type="line"/>
      <point x="2" y="-4" type="line"/>
      <point x="3" y="-4" type="line"/>
      <point x="4" y="-4" type="line"/>
      <point x="4" y="-5" type="line"/>
      <point x="5" y="-5" type="line"/>
      <point x="6" y="-5" type="line"/>
      <point x="7" y="-5" type="line"/>
      <point x="8" y="-5" type="line"/>
      <point x="9" y="-5" type="line"/>
      <point x="9" y="-4" type="line"/>
      <point x="10" y="-4" type="line"/>
      <point x="11" y="-4" type="line"/>
      <point x="11" y="-3" type="line"/>
      <point x="11" y="-2" type="line"/>
      <point x="12" y="-2" type="line"/>
      <point x="12" y="-1" type="line"/>
      <point x="12" y="0" type="line"/>
      <point x="12" y="1" type="line"/>
      <point x="11" y="1" type="line"/>
      <point x="11" y="2" type="line"/>
      <point x="10" y="2" type="line"/>
      <point x="10" y="3" type="line"/>
      <point x="9" y="3" type="line"/>
      <point x="9" y="4" type="line"/>
      <point x="10" y="4" type="line"/>
      <point x="11" y="4" type="line"/>
      <point x="11" y="5" type="line"/>
      <point x="12" y="5" type="line"/>
      <point x="12" y="6" type="line"/>
      <point x="12" y="7" type="line"/>
      <point x="12" y="8" type="line"/>
      <point x="12" y="9" type="line"/>
      <point x="11" y="9" type="line"/>
      <point x="11" y="10" type="line"/>
      <point x="10" y="10" type="line"/>
      <point x="9" y="10" type="line"/>
      <point x="9" y="11" type="line"/>
      <point x="8" y="11" type="line"/>
      <point x="7" y="11" type="line"/>
      <point x="7" y="12" type="line"/>
      <point x="6" y="12" type="line"/>
      <point x="5" y="12" type="line"/>
      <point x="5" y="13" type="line"/>
      <point x="4" y="13" type="line"/>
      <point x="4" y="14" type="line"/>
      <point x="4" y="15" type="line"/>
      <point x="4" y="16" type="line"/>
      <point x="5" y="16" type="line"/>
      <point x="5" y="17" type="line"/>
      <point x="6" y="17" type="line"/>
      <point x="7" y="17" type="line"/>
      <point x="8" y="17" type="line"/>
      <point x="9" y="17" type="line"/>
      <point x="9" y="16" type="line"/>
      <point x="10" y="16" type="line"/>
      <point x="10" y="15" type="line"/>
      <point x="11" y="15" type="line"/>
      <point x="11" y="16" type="line"/>
      <point x="12" y="16" type="line"/>
      <point x="12" y="17" type="line"/>
      <point x="11" y="17" type="line"/>
      <point x="11" y="18" type="line"/>
      <point x="10" y="18" type="line"/>
      <point x="9" y="18" type="line"/>
      <point x="9" y="19" type="line"/>
      <point x="8" y="19" type="line"/>
      <point x="7" y="19" type="line"/>
      <point x="6" y="19" type="line"/>
    </contour>
    <contour>
      <point x="5" y="9" type="line"/>
      <point x="6" y="9" type="line"/>
      <point x="7" y="9" type="line"/>
      <point x="8" y="9" type="line"/>
      <point x="8" y="8" type="line"/>
      <point x="9" y="8" type="line"/>
      <point x="10" y="8" type="line"/>
      <point x="10" y="7" type="line"/>
      <point x="9" y="7" type="line"/>
      <point x="9" y="6" type="line"/>
      <point x="9" y="5" type="line"/>
      <point x="8" y="5" type="line"/>
      <point x="8" y="4" type="line"/>
      <point x="7" y="4" type="line"/>
      <point x="6" y="4" type="line"/>
      <point x="5" y="4" type="line"/>
      <point x="5" y="5" type="line"/>
      <point x="4" y="5" type="line"/>
      <point x="4" y="6" type="line"/>
      <point x="4" y="7" type="line"/>
      <point x="4" y="8" type="line"/>
      <point x="5" y="8" type="line"/>
    </contour>
  </outline>
</glyph>
<glyph name="registered" format="2">
  <advance width="14"/>
    <unicode hex="00AE"/>
  <outline>
    <contour>
      <point x="5" y="19" type="line"/>
      <point x="4" y="19" type="line"/>
      <point x="4" y="18" type="line"/>
      <point x="3" y="18" type="line"/>
      <point x="2" y="18" type="line"/>
      <point x="2" y="17" type="line"/>
      <point x="2" y="16" type="line"/>
      <point x="1" y="16" type="line"/>
      <point x="1" y="15" type="line"/>
      <point x="1" y="14" type="line"/>
      <point x="1" y="13" type="line"/>
      <point x="1" y="12" type="line"/>
      <point x="1" y="11" type="line"/>
      <point x="2" y="11" type="line"/>
      <point x="2" y="10" type="line"/>
      <point x="2" y="9" type="line"/>
      <point x="3" y="9" type="line"/>
      <point x="4" y="9" type="line"/>
      <point x="4" y="8" type="line"/>
      <point x="5" y="8" type="line"/>
      <point x="6" y="8" type="line"/>
      <point x="7" y="8" type="line"/>
      <point x="8" y="8" type="line"/>
      <point x="9" y="8" type="line"/>
      <point x="10" y="8" type="line"/>
      <point x="10" y="9" type="line"/>
      <point x="11" y="9" type="line"/>
      <point x="12" y="9" type="line"/>
      <point x="12" y="10" type="line"/>
      <point x="12" y="11" type="line"/>
      <point x="13" y="11" type="line"/>
      <point x="13" y="12" type="line"/>
      <point x="13" y="13" type="line"/>
      <point x="13" y="14" type="line"/>
      <point x="13" y="15" type="line"/>
      <point x="13" y="16" type="line"/>
      <point x="12" y="16" type="line"/>
      <point x="12" y="17" type="line"/>
      <point x="12" y="18" type="line"/>
      <point x="11" y="18" type="line"/>
      <point x="10" y="18" type="line"/>
      <point x="10" y="19" type="line"/>
      <point x="9" y="19" type="line"/>
      <point x="8" y="19" type="line"/>
      <point x="7" y="19" type="line"/>
      <point x="6" y="19" type="line"/>
    </contour>
    <contour>
      <point x="4" y="17" type="line"/>
      <point x="5" y="17" type="line"/>
      <point x="6" y="17" type="line"/>
      <point x="7" y="17" type="line"/>
      <point x="8" y="17" type="line"/>
      <point x="9" y="17" type="line"/>
      <point x="10" y="17" type="line"/>
      <point x="10" y="16" type="line"/>
      <point x="11" y="16" type="line"/>
      <point x="11" y="15" type="line"/>
      <point x="11" y="14" type="line"/>
      <point x="11" y="13" type="line"/>
      <point x="11" y="12" type="line"/>
      <point x="11" y="11" type="line"/>
      <point x="10" y="11" type="line"/>
      <point x="10" y="10" type="line"/>
      <point x="9" y="10" type="line"/>
      <point x="8" y="10" type="line"/>
      <point x="7" y="10" type="line"/>
      <point x="6" y="10" type="line"/>
      <point x="5" y="10" type="line"/>
      <point x="4" y="10" type="line"/>
      <point x="4" y="11" type="line"/>
      <point x="3" y="11" type="line"/>
      <point x="3" y="12" type="line"/>
      <point x="3" y="13" type="line"/>
      <point x="3" y="14" type="line"/>
      <point x="3" y="15" type="line"/>
      <point x="3" y="16" type="line"/>
      <point x="4" y="16" type="line"/>
    </contour>
    <contour>
      <point x="5" y="16" type="line"/>
      <point x="4" y="16" type="line"/>
      <point x="4" y="15" type="line"/>
      <point x="4" y="14" type="line"/>
      <point x="4" y="13" type="line"/>
      <point x="4" y="12" type="line"/>
      <point x="4" y="11" type="line"/>
      <point x="5" y="11" type="line"/>
      <point x="6" y="11" type="line"/>
      <point x="6" y="12" type="line"/>
      <point x="6" y="13" type="line"/>
      <point x="7" y="13" type="line"/>
      <point x="7" y="12" type="line"/>
      <point x="8" y="12" type="line"/>
      <point x="8" y="11" type="line"/>
      <point x="9" y="11" type="line"/>
      <point x="10" y="11" type="line"/>
      <point x="10" y="12" type="line"/>
      <point x="9" y="12" type="line"/>
      <point x="9" y="13" type="line"/>
      <point x="10" y="13" type="line"/>
      <point x="10" y="14" type="line"/>
      <point x="10" y="15" type="line"/>
      <point x="9" y="15" type="line"/>
      <point x="9" y="16" type="line"/>
      <point x="8" y="16" type="line"/>
      <point x="7" y="16" type="line"/>
      <point x="6" y="16" type="line"/>
    </contour>
    <contour>
      <point x="6" y="15" type="line"/>
      <point x="7" y="15" type="line"/>
      <point x="8" y="15" type="line"/>
      <point x="8" y="14" type="line"/>
      <point x="7" y="14" type="line"/>
      <point x="6" y="14" type="line"/>
    </contour>
  </outline>
</glyph>
<glyph name="degree" format="2">
  <advance width="10"/>
    <unicode hex="00B0"/>
  <outline>
    <contour>
      <point x="4" y="19" type="line"/>
      <point x="3" y="19" type="line"/>
      <point x="3" y="18" type="line"/>
      <point x="2" y="18" type="line"/>
      <point x="2" y="17" type="line"/>
      <point x="1" y="17" type="line"/>
      <point x="1" y="16" type="line"/>
      <point x="1" y="15" type="line"/>
      <point x="1" y="14" type="line"/>
      <point x="1" y="13" type="line"/>
      <point x="2" y="13" type="line"/>
      <point x="2" y="12" type="line"/>
      <point x="3" y="12" type="line"/>
      <point x="3" y="11" type="line"/>
      <point x="4" y="11" type="line"/>
      <point x="5" y="11" type="line"/>
      <point x="6" y="11" type="line"/>
      <point x="7" y="11" type="line"/>
      <point x="7" y="12" type="line"/>
      <point x="8" y="12" type="line"/>
      <point x="8" y="13" type="line"/>
      <point x="9" y="13" type="line"/>
      <point x="9" y="14" type="line"/>
      <point x="9" y="15" type="line"/>
      <point x="9" y="16" type="line"/>
      <point x="9" y="17" type="line"/>
      <point x="8" y="17" type="line"/>
      <point x="8" y="18" type="line"/>
      <point x="7" y="18" type="line"/>
      <point x="7" y="19" type="line"/>
      <point x="6" y="19" type="line"/>
      <point x="5" y="19" type="line"/>
    </contour>
    <contour>
      <point x="4" y="17" type="line"/>
      <point x="5" y="17" type="line"/>
      <point x="6" y="17" type="line"/>
      <point x="6" y="16" type="line"/>
      <point x="7" y="16" type="line"/>
      <point x="7" y="15" type="line"/>
      <point x="7" y="14" type="line"/>
      <point x="6" y="14" type="line"/>
      <point x="6" y="13" type="line"/>
      <point x="5" y="13" type="line"/>
      <point x="4" y="13" type="line"/>
      <point x="4" y="14" type="line"/>
      <point x="3" y="14" type="line"/>
      <point x="3" y="15" type="line"/>
      <point x="3" y="16" type="line"/>
      <point x="4" y="16" type="line"/>
    </contour>
  </outline>
</glyph>
<glyph name="periodcentered" format="2">
  <advance width="9"/>
    <unicode hex="00B7"/>
  <outline>
    <contour>
      <point x="4" y="8" type="line"/>
      <point x="3" y="8" type="line"/>
      <point x="3" y="7" type="line"/>
      <point x="3" y="6" type="line"/>
      <point x="3" y="5" type="line"/>
      <point x="4" y="5" type="line"/>
      <point x="5" y="5" type="line"/>
      <point x="6" y="5" type="line"/>
      <point x="6" y="6" type="line"/>
      <point x="6" y="7" type="line"/>
      <point x="6" y="8" type="line"/>
      <point x="5" y="8" type="line"/>
    </contour>
  </outline>
</glyph>
<glyph name="multiply" format="2">
  <advance width="15"/>
    <unicode hex="00D7"/>
  <outline>
    <contour>
      <point x="3" y="14" type="line"/>
      <point x="3" y="15" type="line"/>
      <point x="2" y="15" type="line"/>
      <point x="2" y="14" type="line"/>
      <point x="1" y="14" type="line"/>
      <point x="1" y="13" type="line"/>
      <point x="2" y="13" type="line"/>
      <point x="2" y="12" type="line"/>
      <point x="3" y="12" type="line"/>
      <point x="3" y="11" type="line"/>
      <point x="4" y="11" type="line"/>
      <point x="4" y="10" type="line"/>
      <point x="5" y="10" type="line"/>
      <point x="5" y="9" type="line"/>
      <point x="6" y="9" type="line"/>
      <point x="6" y="8" type="line"/>
      <point x="5" y="8" type="line"/>
      <point x="5" y="7" type="line"/>
      <point x="4" y="7" type="line"/>
      <point x="4" y="6" type="line"/>
      <point x="3" y="6" type="line"/>
      <point x="3" y="5" type="line"/>
      <point x="2" y="5" type="line"/>
      <point x="2" y="4" type="line"/>
      <point x="1" y="4" type="line"/>
      <point x="1" y="3" type="line"/>
      <point x="2" y="3" type="line"/>
      <point x="2" y="2" type="line"/>
      <point x="3" y="2" type="line"/>
      <point x="3" y="3" type="line"/>
      <point x="4" y="3" type="line"/>
      <point x="4" y="4" type="line"/>
      <point x="5" y="4" type="line"/>
      <point x="5" y="5" type="line"/>
      <point x="6" y="5" type="line"/>
      <point x="6" y="6" type="line"/>
      <point x="7" y="6" type="line"/>
      <point x="7" y="7" type="line"/>
      <point x="8" y="7" type="line"/>
      <point x="8" y="6" type="line"/>
      <point x="9" y="6" type="line"/>
      <point x="9" y="5" type="line"/>
      <point x="10" y="5" type="line"/>
      <point x="10" y="4" type="line"/>
      <point x="11" y="4" type="line"/>
      <point x="11" y="3" type="line"/>
      <point x="12" y="3" type="line"/>
      <point x="12" y="2" type="line"/>
      <point x="13" y="2" type="line"/>
      <point x="13" y="3" type="line"/>
      <point x="14" y="3" type="line"/>
      <point x="14" y="4" type="line"/>
      <point x="13" y="4" type="line"/>
      <point x="13" y="5" type="line"/>
      <point x="12" y="5" type="line"/>
      <point x="12" y="6" type="line"/>
      <point x="11" y="6" type="line"/>
      <point x="11" y="7" type="line"/>
      <point x="10" y="7" type="line"/>
      <point x="10" y="8" type="line"/>
      <point x="9" y="8" type="line"/>
      <point x="9" y="9" type="line"/>
      <point x="10" y="9" type="line"/>
      <point x="10" y="10" type="line"/>
      <point x="11" y="10" type="line"/>
      <point x="11" y="11" type="line"/>
      <point x="12" y="11" type="line"/>
      <point x="12" y="12" type="line"/>
      <point x="13" y="12" type="line"/>
      <point x="13" y="13" type="line"/>
      <point x="14" y="13" type="line"/>
      <point x="14" y="14" type="line"/>
      <point x="13" y="14" type="line"/>
      <point x="13" y="15" type="line"/>
      <point x="12" y="15" type="line"/>
      <point x="12" y="14" type="line"/>
      <point x="11" y="14" type="line"/>
      <point x="11" y="13" type="line"/>
      <point x="10" y="13" type="line"/>
      <point x="10" y="12" type="line"/>
      <point x="9" y="12" type="line"/>
      <point x="9" y="11" type="line"/>
      <point x="8" y="11" type="line"/>
      <point x="8" y="10" type="line"/>
      <point x="7" y="10" type="line"/>
      <point x="7" y="11" type="line"/>
      <point x="6" y="11" type="line"/>
      <point x="6" y="12" type="line"/>
      <point x="5" y="12" type="line"/>
      <point x="5" y="13" type="line"/>
      <point x="4" y="13" type="line"/>
      <point x="4" y="14" type="line"/>
    </contour>
  </outline>
</glyph>
<glyph name="quoteright" format="2">
  <advance width="7"/>
    <unicode hex="2019"/>
  <outline>
    <contour>
      <point x="3" y="20" type="line"/>
      <point x="2" y="20" type="line"/>
      <point x="2" y="19" type="line"/>
      <point x="2" y="18" type="line"/>
      <point x="2" y="17" type="line"/>
      <point x="2" y="16" type="line"/>
      <point x="2" y="15" type="line"/>
      <point x="2" y="14" type="line"/>
      <point x="3" y="14" type="line"/>
      <point x="4" y="14" type="line"/>
      <point x="4" y="15" type="line"/>
      <point x="4" y="16" type="line"/>
      <point x="4" y="17" type="line"/>
      <point x="5" y="17" type="line"/>
      <point x="5" y="18" type="line"/>
      <point x="5" y="19" type="line"/>
      <point x="5" y="20" type="line"/>
      <point x="4" y="20" type="line"/>
    </contour>
  </outline>
</glyph>
<glyph name="bullet" format="2">
  <advance width="11"/>
    <unicode hex="2022"/>
  <outline>
    <contour>
      <point x="5" y="10" type="line"/>
      <point x="4" y="10" type="line"/>
      <point x="4" y="9" type="line"/>
      <point x="3" y="9" type="line"/>
      <point x="3" y="8" type="line"/>
      <point x="3" y="7" type="line"/>
      <point x="3" y="6" type="line"/>
      <point x="4" y="6" type="line"/>
      <point x="4" y="5" type="line"/>
      <point x="5" y="5" type="line"/>
      <point x="6" y="5" type="line"/>
      <point x="7" y="5" type="line"/>
      <point x="7" y="6" type="line"/>
      <point x="8" y="6" type="line"/>
      <point x="8" y="7" type="line"/>
      <point x="8" y="8" type="line"/>
      <point x="8" y="9" type="line"/>
      <point x="7" y="9" type="line"/>
      <point x="7" y="10" type="line"/>
      <point x="6" y="10" type="line"/>
    </contour>
  </outline>
</glyph>
<glyph name="ellipsis" format="2">
  <advance width="17"/>
    <unicode hex="2026"/>
  <outline>
    <contour>
      <point x="3" y="3" type="line"/>
      <point x="2" y="3" type="line"/>
      <point x="2" y="2" type="line"/>
      <point x="2" y="1" type="line"/>
      <point x="2" y="0" type="line"/>
      <point x="3" y="0" type="line"/>
      <point x="4" y="0" type="line"/>
      <point x="5" y="0" type="line"/>
      <point x="5" y="1" type="line"/>
      <point x="5" y="2" type="line"/>
      <point x="5" y="3" type="line"/>
      <point x="4" y="3" type="line"/>
    </contour>
    <contour>
      <point x="8" y="3" type="line"/>
      <point x="7" y="3" type="line"/>
      <point x="7" y="2" type="line"/>
      <point x="7" y="1" type="line"/>
      <point x="7" y="0" type="line"/>
      <point x="8" y="0" type="line"/>
      <point x="9" y="0" type="line"/>
      <point x="10" y="0" type="line"/>
      <point x="10" y="1" type="line"/>
      <point x="10" y="2" type="line"/>
      <point x="10" y="3" type="line"/>
      <point x="9" y="3" type="line"/>
    </contour>
    <contour>
      <point x="13" y="3" type="line"/>
      <point x="12" y="3" type="line"/>
      <point x="12" y="2" type="line"/>
      <point x="12" y="1" type="line"/>
      <point x="12" y="0" type="line"/>
      <point x="13" y="0" type="line"/>
      <point x="14" y="0" type="line"/>
      <point x="15" y="0" type="line"/>
      <point x="15" y="1" type="line"/>
      <point x="15" y="2" type="line"/>
      <point x="15" y="3" type="line"/>
      <point x="14" y="3" type="line"/>
    </contour>
  </outline>
</glyph>
